<?xml version="1.0" encoding="utf-8"?>
<!-- Generator: Adobe Illustrator 15.1.0, SVG Export Plug-In . SVG Version: 6.00 Build 0)  -->
<!DOCTYPE svg PUBLIC "-//W3C//DTD SVG 1.1//EN" "http://www.w3.org/Graphics/SVG/1.1/DTD/svg11.dtd">
<svg version="1.1" id="Layer_1" xmlns="http://www.w3.org/2000/svg" xmlns:xlink="http://www.w3.org/1999/xlink" x="0px" y="0px"
	 width="857px" height="362px" viewBox="0 0 857 362" enable-background="new 0 0 857 362" xml:space="preserve">
<g>
	
		<rect x="410.56" y="97.964" transform="matrix(0.1937 0.9811 -0.9811 0.1937 502.4286 -356.0953)" fill="#66BD67" width="114.584" height="59.3"/>
	
		<rect x="646.696" y="50.879" transform="matrix(0.9842 0.1771 -0.1771 0.9842 35.0535 -124.2761)" fill="#66BD67" width="134.022" height="166.696"/>
	<path fill="#66BD67" d="M754.774,58.003c0.317-0.188,0.674-0.354,0.967-0.555c3.697-2.529,6.284-5.619,7.492-8.94
		c1.478-4.053,0.881-8.201-1.715-11.994c-4.715-6.89-13.409-7.8-21.608-2.19c-3.421,2.347-5.891,6.034-7.722,9.764
		c-0.401-5.832-2.103-12.272-4.778-16.182c-5.612-8.196-14.043-10.499-20.936-5.775c-3.793,2.597-5.844,6.247-5.938,10.562
		c-0.073,3.529,1.222,7.351,3.747,11.043c1.42,2.076,3.611,4.119,6.106,5.957l-20.275-3.797l-1.477,7.879l74.853,14.018l1.479-7.879
		L754.774,58.003z M744.441,40.939c2.666-1.828,5.22-2.633,7.178-2.266c1.287,0.239,2.359,1.014,3.288,2.371
		c1.118,1.635,1.371,3.137,0.793,4.725c-0.623,1.711-2.216,3.51-4.482,5.065c-3.11,2.13-9.755,3.466-14.479,3.468
		C738.125,50.042,740.615,43.561,744.441,40.939z M708.552,32.861c0.038-1.688,0.813-2.996,2.459-4.115
		c1.351-0.93,2.632-1.264,3.915-1.023c1.96,0.368,4.043,2.041,5.873,4.711c2.634,3.849,3.712,11.387,3.479,15.654
		c-4.499-1.466-11.057-5.494-13.375-8.881C709.348,36.936,708.513,34.684,708.552,32.861z"/>
	<path fill="#66BD67" d="M476.643,69.244c0.171-0.214,0.374-0.424,0.521-0.639c1.897-2.75,2.871-5.59,2.821-8.221
		c-0.053-3.212-1.578-5.938-4.395-7.88c-5.116-3.534-11.407-1.845-15.612,4.248c-1.749,2.545-2.484,5.769-2.76,8.849
		c-1.837-3.947-4.738-7.972-7.645-9.975c-6.096-4.197-12.567-3.547-16.1,1.577c-1.944,2.817-2.398,5.903-1.312,8.93
		c0.891,2.476,2.812,4.784,5.56,6.677c1.539,1.064,3.606,1.901,5.835,2.51l-15.114,2.775l1.08,5.875l55.79-10.248l-1.075-5.871
		L476.643,69.244z M464.899,60.143c1.366-1.983,2.928-3.227,4.389-3.494c0.956-0.176,1.91,0.076,2.916,0.771
		c1.217,0.837,1.791,1.814,1.813,3.072c0.021,1.355-0.604,3.031-1.765,4.722c-1.598,2.31-5.856,5.013-9.143,6.278
		C462.939,68.157,462.939,62.986,464.899,60.143z M437.787,64.109c-0.424-1.185-0.229-2.301,0.61-3.521
		c0.691-1.005,1.493-1.579,2.448-1.754c1.461-0.271,3.356,0.338,5.343,1.707c2.858,1.972,5.622,6.925,6.6,9.954
		c-3.52,0.184-9.15-0.863-11.673-2.602C439.43,66.729,438.246,65.387,437.787,64.109z"/>
	
		<rect x="567.475" y="78.155" transform="matrix(0.1938 0.981 -0.981 0.1938 615.7872 -520.769)" fill="#66BD67" width="114.554" height="72.265"/>
	<path fill="#66BD67" d="M625.407,56.666c0.146-0.184,0.315-0.361,0.442-0.544c1.604-2.327,2.433-4.731,2.39-6.961
		c-0.045-2.722-1.335-5.027-3.722-6.675c-4.333-2.993-9.663-1.562-13.221,3.598c-1.485,2.154-2.104,4.886-2.342,7.494
		c-1.558-3.342-4.014-6.751-6.475-8.448c-5.163-3.554-10.646-3.006-13.637,1.335c-1.646,2.387-2.03,5.002-1.106,7.562
		c0.752,2.097,2.381,4.051,4.708,5.658c1.306,0.898,3.058,1.607,4.939,2.125l-12.801,2.35l0.916,4.976l47.253-8.68l-0.914-4.972
		L625.407,56.666z M615.461,48.956c1.155-1.683,2.478-2.733,3.716-2.961c0.81-0.15,1.618,0.063,2.474,0.653
		c1.026,0.711,1.516,1.537,1.534,2.604c0.021,1.148-0.51,2.568-1.493,3.999c-1.351,1.956-4.962,4.248-7.743,5.317
		C613.802,55.743,613.802,51.361,615.461,48.956z M592.498,52.316c-0.356-1.006-0.194-1.951,0.521-2.982
		c0.585-0.854,1.265-1.339,2.074-1.486c1.233-0.228,2.844,0.286,4.521,1.444c2.424,1.672,4.765,5.868,5.591,8.435
		c-2.979,0.153-7.753-0.732-9.887-2.205C593.889,54.535,592.887,53.398,592.498,52.316z"/>
	
		<rect x="502.379" y="65.631" transform="matrix(-0.0705 0.9975 -0.9975 -0.0705 727.368 -420.6373)" fill="#66BD67" width="114.567" height="125.874"/>
	<path fill="#66BD67" d="M564.835,72.212c0.218-0.163,0.47-0.313,0.671-0.481c2.548-2.154,4.232-4.64,4.88-7.19
		c0.79-3.117,0.036-6.144-2.174-8.758c-4.012-4.755-10.522-4.773-16.183,0c-2.354,1.995-3.913,4.916-4.979,7.813
		c-0.738-4.291-2.483-8.934-4.761-11.631c-4.778-5.648-11.198-6.724-15.947-2.704c-2.616,2.208-3.862,5.069-3.606,8.273
		c0.209,2.622,1.455,5.354,3.61,7.901c1.206,1.432,2.979,2.779,4.968,3.955l-15.31-1.289l-0.499,5.949l56.521,4.756l0.502-5.947
		L564.835,72.212z M555.891,60.345c1.84-1.555,3.67-2.345,5.148-2.221c0.973,0.084,1.822,0.577,2.613,1.511
		c0.951,1.129,1.252,2.223,0.943,3.442c-0.333,1.313-1.377,2.767-2.943,4.09c-2.145,1.812-6.968,3.301-10.465,3.659
		C551.896,67.564,553.254,62.573,555.891,60.345z M528.687,57.059c-0.098-1.254,0.382-2.283,1.513-3.236
		c0.935-0.788,1.856-1.133,2.824-1.051c1.482,0.125,3.15,1.209,4.709,3.051c2.239,2.652,3.606,8.158,3.755,11.337
		c-3.442-0.75-8.605-3.238-10.583-5.573C529.585,60.018,528.796,58.411,528.687,57.059z"/>
	<path fill="#D02027" d="M850.246,260.262h-19.527l-22.496-94.885h-54.386v-9.371h54.386v-12.824l-13.196,0.401l-0.389-43.31h13.988
		v-11.73H422.187v12.073h6.993l0.038,42.565h-8.633v12.824h46.266v9.378l-59.707,0.05V99.545h-50.819v13.878l-17.664,0.772
		c-7.625,0.293-15.916-0.133-22.068,5.099c-6.144,5.248-7.539,13.288-8.49,20.832l-4.415,34.446l-2.53-29.299
		c-0.492-5.453-2.618-11.789-7.293-15.125c-1.873-1.304-3.859-2.321-5.983-3.172c1.667-0.526,3.182-1.238,4.538-2.33
		c1.936-1.498,3.275-3.197,4.189-5.401c0.75-1.744,1.057-3.575,1.218-5.429l9.938,7.321l1.104-2.558l-9.218-7.73
		c-0.755-2.041-1.698-3.919-2.844-5.846c-2.288-3.812-5.453-7.289-8.986-10.001c-2.676-2.06-5.784-3.688-9.092-4.426
		c-1.971-0.396-3.895-0.581-5.935-0.55v0.36l-1.452,9.879h-14.725v1.828c1.107,0.198,2.275,0.336,3.424,0.509
		c0.934,0.09,1.872,0.164,2.84,0.262c2.07,0.328,4.161,0.673,6.25,1.05c-1.147,2.557-2.122,5.132-2.526,7.896
		c-0.536,3.674,0.506,7.674,3.071,10.422c2.059,2.155,4.571,3.738,7.177,5.106c-1.77,0.949-3.486,1.952-4.985,3.228
		c-1.77,1.562-3.372,3.291-4.725,5.24c-1.159,1.706-2.041,3.551-2.796,5.458c-0.8,2.519-1.521,5.042-2.098,7.583
		c-1.186,5.125-2.025,10.34-3.091,15.491l-2.174,11.694h-26.502l-6.634-30.363l2.193-51.229h-9.562l-6.264,46.823L68.902,159.222
		c-2.374,0.317-4.734,0.532-7.066,0.884c-2.341,0.28-4.743,0.981-6.592,2.451c-2.421,1.952-4.48,4.895-4.759,7.988l-7,79.812
		c-0.283,3.026-1.706,6.074-4.029,8.062c-2.292,1.919-5.162,2.264-8.109,2.199l-20.593-0.35v23.062h69.929
		c-2.023,9.413-3.676,18.469-1.274,27.93c3.305,12.912,11.633,24.217,22.799,31.465c7.69,5.033,17.401,6.443,26.308,7.552
		c10.228-0.806,19.001-1.861,27.796-7.175c11.71-7.016,20.139-18.688,23.734-31.709c2.469-9.141,0.722-19.046-1.135-28.062H568.68
		c-2.613,9.442-4.812,18.567-2.787,28.313c2.754,13.302,10.892,25.015,22.126,32.652c7.739,5.248,17.648,6.707,26.678,7.822
		c10.396-0.943,19.432-2.092,28.316-7.74c11.558-7.402,19.699-19.471,22.658-32.775c2.101-9.344-0.328-19.272-2.771-28.268h187.344
		V260.26h0.003V260.262z M754.919,100.616h29.444v42.493h-29.444V100.616z M437.272,143.189v-42.574h29.48l0.097,42.574H437.272z
		 M714.81,100.616h29.401v42.493H714.81V100.616z M675.077,100.616h29.421v42.493h-29.421V100.616z M635.666,100.616h29.396v42.493
		h-29.396V100.616z M595.938,100.616h29.449v42.493h-29.449V100.616z M556.177,100.616h29.48v42.493h-29.48V100.616z
		 M516.055,100.616h29.458v42.493h-29.458V100.616z M475.953,100.616h29.396l0.133,42.573h-29.563L475.953,100.616z
		 M745.983,165.391H475.916v-9.394h270.066L745.983,165.391L745.983,165.391z"/>
</g>
</svg>
