<?xml version="1.0" encoding="utf-8"?>
<!-- Generator: Adobe Illustrator 15.1.0, SVG Export Plug-In . SVG Version: 6.00 Build 0)  -->
<!DOCTYPE svg PUBLIC "-//W3C//DTD SVG 1.1//EN" "http://www.w3.org/Graphics/SVG/1.1/DTD/svg11.dtd">
<svg version="1.1" id="Layer_1" xmlns="http://www.w3.org/2000/svg" xmlns:xlink="http://www.w3.org/1999/xlink" x="0px" y="0px"
	 width="246px" height="355px" viewBox="0 0 246 355" enable-background="new 0 0 246 355" xml:space="preserve">
<g>
	<rect x="17.744" y="123.167" fill="#D12027" width="215.352" height="195.005"/>
	<g>
		<g>
			<path fill="#FFFFFF" d="M75.072,140.475c2.397,0,5.244,0.574,6.905,0.734l-0.959,4.859h-1.087c0-3.325-2.812-4.379-5.402-4.379
				c-4.923,0-8.184,3.963-8.184,9.143c0,5.754,4.027,9.622,9.238,9.622c3.996,0,6.425-2.271,6.425-2.271l0.448,0.672
				c0,0-2.397,3.708-7.961,3.708c-5.689,0-11.125-3.9-11.125-10.808C63.373,145.236,68.199,140.475,75.072,140.475z"/>
			<path fill="#FFFFFF" d="M91.662,154.156l1.088-0.16c0.031-0.671,0.031-2.525-0.129-3.42c-0.224-1.184-0.83-2.047-2.014-2.047
				c-2.174,0-3.388,3.07-3.388,3.07h-1.022l-0.543-2.397c0,0,2.332-1.791,5.914-1.791c3.004,0,3.803,1.215,3.803,4.571v7.353
				c0,1.023,0.129,1.502,0.863,1.502c0.863,0,1.758-0.64,1.758-0.64l0.416,0.672c0,0-1.502,1.694-3.389,1.694
				c-1.215,0-2.174-0.704-2.174-2.271v-0.767c0,0-1.693,3.037-4.987,3.037c-2.11,0-3.325-1.506-3.325-3.229
				C84.533,156.266,88.339,154.667,91.662,154.156z M92.75,158.823v-3.772l-0.991,0.16c-1.822,0.288-4.412,1.247-4.412,3.548
				c0,1.279,0.832,1.982,1.791,1.982C90.385,160.741,91.919,159.526,92.75,158.823z"/>
			<path fill="#FFFFFF" d="M99.527,161.349c1.438-0.157,1.981-0.927,1.981-2.075v-7.771c0-1.375-0.032-2.173-0.959-2.173h-1.375
				v-0.863c3.133-0.639,5.114-1.502,5.114-1.502l0.097,0.096c0,0-0.288,1.023-0.384,3.869c1.15-1.662,3.197-3.518,5.785-3.518
				c2.047,0,3.356,1.15,3.356,3.676c1.216-1.918,3.325-3.676,5.851-3.676c2.078,0,3.42,1.119,3.42,4.316v7.544
				c0,0.959-0.16,1.727-0.16,1.727l2.718,0.288l-0.128,0.799l-6.873,0.191v-0.93c1.438-0.157,1.822-0.927,1.822-2.075v-6.841
				c0-2.431-0.672-3.069-1.854-3.069c-1.438,0-4.698,1.311-4.698,3.165v6.747c0,0.959-0.16,1.727-0.16,1.727l2.558,0.288
				l-0.128,0.799l-6.713,0.191v-0.93c1.438-0.157,1.822-0.927,1.822-2.075v-6.841c0-2.431-0.672-3.069-1.887-3.069
				c-1.438,0-3.229,0.862-4.603,2.237v7.673c0,0.959-0.16,1.727-0.16,1.727l2.558,0.288l-0.127,0.799l-6.873,0.191V161.349
				L99.527,161.349z"/>
			<path fill="#FFFFFF" d="M126.539,169.084c1.438-0.799,1.662-1.533,1.662-3.004v-14.578c0-1.375-0.032-2.173-0.963-2.173h-1.275
				v-0.863c3.133-0.639,5.02-1.502,5.02-1.502l0.1,0.097c0,0-0.191,0.799-0.32,2.844c0.863-1.086,2.078-2.493,4.604-2.493
				c3.899,0,5.817,3.453,5.817,6.969c0,4.06-2.59,8.187-8.216,8.187c-0.862,0-1.534-0.1-2.146-0.192v3.677
				c0,0.959-0.156,1.821-0.156,1.821h3.354l-0.127,0.769c0,0-5.052,0.606-7.353,1.375L126.539,169.084L126.539,169.084z
				 M138.398,155.307c0-3.068-1.344-6.041-4.188-6.041c-1.247,0-2.397,0.574-3.392,1.342v9.015c0,1.503,1.246,1.727,2.304,1.727
				C136.448,161.349,138.398,158.951,138.398,155.307z"/>
			<path fill="#FFFFFF" d="M144.824,158.887v-15.854c0-1.375-0.03-2.174-0.959-2.174h-1.344v-0.863
				c3.677-0.799,5.146-1.438,5.146-1.438l0.097,0.096c0,0-0.318,1.183-0.318,3.644v5.115c0,1.471-0.129,2.11-0.129,2.366
				c0.863-1.055,2.146-2.366,4.539-2.366c3.899,0,5.914,3.453,5.914,6.969c0,4.028-2.652,8.187-8.246,8.187
				c-1.728,0-3.771-0.387-4.893-0.387l-0.097-0.096C144.535,162.084,144.824,160.678,144.824,158.887z M149.777,161.349
				c3.104,0,5.211-2.396,5.211-6.042c0-3.068-1.471-6.041-4.348-6.041c-1.406,0-2.718,0.734-3.195,1.183V160.9
				C147.445,160.9,148.436,161.349,149.777,161.349z"/>
			<path fill="#FFFFFF" d="M166.945,147.411c2.748,0,5.469,1.791,5.562,5.307c0,0-0.831,0.32-1.47,0.416l-7.961,1.151l-0.319,0.384
				c0.128,2.909,1.599,5.754,5.179,5.754c2.621,0,4.156-1.534,4.156-1.534l0.352,0.668c0,0-1.66,3.008-5.467,3.008
				c-4.539,0-6.773-3.551-6.773-7.291C160.199,150.927,163.076,147.411,166.945,147.411z M162.82,153.133l6.717-0.863
				c0,0-0.26-3.645-3.069-3.645C164.323,148.625,163.107,150.734,162.82,153.133z"/>
			<path fill="#FFFFFF" d="M174.584,161.349c1.438-0.157,1.979-0.927,1.979-2.075v-16.239c0-1.375-0.027-2.175-0.959-2.175h-1.342
				v-0.862c3.676-0.8,5.146-1.438,5.146-1.438l0.096,0.096c0,0-0.32,1.184-0.32,3.645v16.978c0,0.959-0.16,1.727-0.16,1.727
				l2.722,0.288l-0.128,0.799l-7.033,0.191V161.349L174.584,161.349z"/>
			<path fill="#FFFFFF" d="M183.119,161.349c1.438-0.157,1.979-0.927,1.979-2.075v-16.239c0-1.375-0.031-2.175-0.959-2.175h-1.343
				v-0.862c3.677-0.8,5.146-1.438,5.146-1.438l0.1,0.096c0,0-0.32,1.184-0.32,3.645v16.978c0,0.959-0.16,1.727-0.16,1.727
				l2.719,0.288l-0.129,0.799l-7.029,0.191L183.119,161.349L183.119,161.349z"/>
			<path fill="#FFFFFF" d="M57.875,170.37c2.396,0,5.242,0.575,6.904,0.735l-0.959,4.855h-1.086c0-3.325-2.813-4.38-5.402-4.38
				c-4.924,0-8.185,3.964-8.185,9.144c0,5.756,4.028,9.621,9.238,9.621c3.996,0,6.425-2.27,6.425-2.27l0.448,0.671
				c0,0-2.397,3.708-7.96,3.708c-5.689,0-11.125-3.9-11.125-10.805C46.175,175.133,51.002,170.37,57.875,170.37z"/>
			<path fill="#FFFFFF" d="M74.976,177.307c4.667,0,7.065,3.068,7.065,7.002c0,3.967-2.463,8.15-7.577,8.15
				c-4.507,0-7-3.164-7-7.256C67.464,181.463,69.541,177.307,74.976,177.307z M74.912,191.373c2.717,0,4.188-2.75,4.188-6.17
				c0-3.165-1.277-6.812-4.507-6.812c-2.94,0-4.188,3.008-4.188,6.073C70.404,187.664,71.716,191.373,74.912,191.373z"/>
			<path fill="#FFFFFF" d="M84.438,191.244c1.438-0.16,1.982-0.928,1.982-2.078v-7.768c0-1.375-0.032-2.178-0.959-2.178h-1.375
				v-0.859c3.133-0.643,5.114-1.502,5.114-1.502l0.097,0.096c0,0-0.288,1.021-0.384,3.868c1.15-1.662,3.197-3.521,5.785-3.521
				c2.047,0,3.356,1.15,3.356,3.68c1.215-1.918,3.325-3.68,5.851-3.68c2.078,0,3.42,1.119,3.42,4.316v7.543
				c0,0.959-0.16,1.727-0.16,1.727l2.717,0.288l-0.127,0.8l-6.873,0.191v-0.928c1.438-0.16,1.822-0.928,1.822-2.078v-6.84
				c0-2.434-0.672-3.069-1.854-3.069c-1.438,0-4.698,1.312-4.698,3.165v6.744c0,0.959-0.16,1.727-0.16,1.727l2.558,0.288l-0.128,0.8
				l-6.713,0.191v-0.928c1.438-0.16,1.822-0.93,1.822-2.078v-6.84c0-2.434-0.672-3.069-1.887-3.069
				c-1.438,0-3.229,0.863-4.604,2.237v7.672c0,0.959-0.159,1.727-0.159,1.727l2.558,0.288l-0.128,0.8l-6.873,0.191V191.244
				L84.438,191.244z"/>
			<path fill="#FFFFFF" d="M111.419,191.244c1.438-0.16,1.981-0.928,1.981-2.078v-7.768c0-1.375-0.031-2.178-0.959-2.178h-1.375
				v-0.859c3.133-0.643,5.115-1.502,5.115-1.502l0.096,0.096c0,0-0.287,1.021-0.384,3.868c1.151-1.662,3.197-3.521,5.786-3.521
				c2.045,0,3.356,1.15,3.356,3.68c1.215-1.918,3.322-3.68,5.85-3.68c2.078,0,3.42,1.119,3.42,4.316v7.543
				c0,0.959-0.158,1.727-0.158,1.727l2.717,0.288l-0.129,0.8l-6.873,0.191v-0.928c1.439-0.16,1.822-0.928,1.822-2.078v-6.84
				c0-2.434-0.67-3.069-1.854-3.069c-1.439,0-4.699,1.312-4.699,3.165v6.744c0,0.959-0.16,1.727-0.16,1.727l2.559,0.288l-0.129,0.8
				l-6.712,0.191v-0.928c1.438-0.16,1.822-0.93,1.822-2.078v-6.84c0-2.434-0.671-3.069-1.886-3.069
				c-1.438,0-3.229,0.863-4.604,2.237v7.672c0,0.959-0.16,1.727-0.16,1.727l2.558,0.288l-0.128,0.8l-6.873,0.191L111.419,191.244
				L111.419,191.244z"/>
			<path fill="#FFFFFF" d="M139.869,181.398c0-1.375-0.031-2.178-0.959-2.178h-1.119v-0.895c3.102-0.544,4.855-1.188,4.855-1.188
				l0.129,0.101c0,0-0.289,0.896-0.289,3.354v6.845c0,2.43,0.863,3.065,2.178,3.065c1.471,0,3.261-0.862,4.636-2.271v-6.842
				c0-1.375-0.032-2.177-0.959-2.177h-1.056v-0.896c3.066-0.543,4.795-1.187,4.795-1.187l0.129,0.101c0,0-0.288,0.896-0.288,3.354
				v8.439c0,1.82,0.731,1.82,1.79,1.82h0.895l-0.096,0.861c-3.484,0.354-5.242,0.641-5.242,0.641l-0.127-0.098
				c0,0,0.287-0.928,0.287-1.727v-1.662c-1.15,1.692-3.261,3.58-5.945,3.58c-2.234,0-3.609-1.217-3.609-4.283L139.869,181.398
				L139.869,181.398z"/>
			<path fill="#FFFFFF" d="M156.204,191.244c1.438-0.16,1.979-0.928,1.979-2.078v-7.768c0-1.375-0.031-2.178-0.959-2.178h-1.438
				v-0.859c3.133-0.643,5.11-1.502,5.11-1.502l0.1,0.096c0,0-0.288,1.055-0.319,3.896c1.15-1.727,3.39-3.549,6.073-3.549
				c2.206,0,3.645,1.215,3.645,4.316v7.543c0,0.959-0.158,1.695-0.158,1.695l2.72,0.315l-0.128,0.8l-6.873,0.191v-0.928
				c1.438-0.16,1.818-0.93,1.818-2.078v-6.84c0-2.434-0.926-3.069-2.205-3.069c-1.471,0-3.42,0.862-4.764,2.237v7.672
				c0,0.959-0.16,1.695-0.16,1.695l2.562,0.315l-0.128,0.8l-6.873,0.191L156.204,191.244L156.204,191.244z"/>
			<path fill="#FFFFFF" d="M174.488,191.244c1.438-0.16,1.982-0.928,1.982-2.078v-7.768c0-1.375-0.033-2.178-0.959-2.178h-1.438
				v-0.859c4.667-1.086,5.342-1.502,5.342-1.502l0.028,0.096c0,0-0.353,1.055-0.353,3.645v8.566c0,0.959-0.159,1.727-0.159,1.727
				l2.717,0.289l-0.127,0.799l-7.033,0.191V191.244L174.488,191.244z M175.768,172.32c0-0.932,0.799-1.729,1.729-1.729
				c0.926,0,1.726,0.8,1.726,1.729c0,0.927-0.8,1.727-1.726,1.727C176.566,174.047,175.768,173.247,175.768,172.32z"/>
			<path fill="#FFFFFF" d="M184.91,181.398c0-0.931,0.096-2.078,0.096-2.078h-2.109v-0.959c0,0,1.406-0.287,2.174-0.99l1.186-3.484
				l1.438,0.031l0.1,0.096c0,0-0.287,0.932-0.287,3.197v0.479h4.982l-0.223,1.531h-4.412l-0.319,0.32v8.119
				c0,1.854,0.544,2.877,2.237,2.877c1.438,0,2.877-0.671,2.877-0.671l0.416,0.604c0,0-1.82,1.98-4.604,1.98
				c-2.271,0-3.549-1.278-3.549-4.188L184.91,181.398L184.91,181.398z"/>
			<path fill="#FFFFFF" d="M198.879,194.602l1.021-2.396c-0.157-0.447-0.416-1.185-0.769-2.078l-4.092-9.78
				c-0.673-1.599-1.791-1.854-1.791-1.854v-0.8h1.503c2.016,0,3.262-0.131,3.262-0.131l0.127,0.131
				c-0.384,0.767-0.384,2.074-0.031,2.938l2.59,6.49c0.191,0.543,0.447,1.342,0.607,1.918l3.611-8.248
				c0.544-1.277-0.575-1.982-1.762-2.301v-0.801h4.443l0.159,0.513c0,0-0.575,0.319-1.149,1.694l-5.528,12.562
				c-0.862,1.918-2.688,7.192-5.755,7.192c-0.93,0-1.405-0.643-1.405-1.347c0-0.639,0.416-1.311,1.563-1.311
				C197.186,196.998,198.305,195.912,198.879,194.602z"/>
		</g>
	</g>
	<g>
		<g>
			<path fill="#FFFFFF" stroke="#FFFFFF" stroke-width="1.0134" stroke-miterlimit="10" d="M65.06,260.441
				c3.448-0.387,5.517-2.227,5.517-4.98v-40.912H62.99c-5.285,0-7.584,1.609-10.496,9.5H49.89l2.375-12.947
				c0,0,1.992,0.463,5.133,0.463h35.855c3.142,0,5.517-0.463,5.517-0.463l-2.375,12.947H93.79c0.384-7.891-2.146-9.5-8.12-9.5
				h-7.585l-0.766,0.77v40.146c0,2.299-0.384,4.139-0.384,4.139l7.662,0.688l-0.308,2.146l-19.229,0.459V260.441z"/>
			<path fill="#FFFFFF" stroke="#FFFFFF" stroke-width="1.0134" stroke-miterlimit="10" d="M129.643,210.643
				c16.012,0,26.203,10.806,26.203,24.672c0,14.635-11.188,28.271-28.119,28.271c-15.706,0-25.895-11.875-25.895-25.818
				C101.832,223.973,111.715,210.643,129.643,210.643z M129.26,260.518c12.028,0,19-12.104,19-23.291
				c0-11.488-7.201-23.52-19.92-23.52c-11.952,0-18.924,10.803-18.924,22.064C109.416,247.188,116.617,260.518,129.26,260.518z"/>
			<path fill="#FFFFFF" stroke="#FFFFFF" stroke-width="1.0134" stroke-miterlimit="10" d="M171.699,260.441
				c3.371-0.387,5.52-2.146,5.52-4.75v-15.629l-14.71-23.219c-1.839-2.91-4.062-3.371-4.062-3.371v-1.914h3.68
				c4.825,0,7.812-0.308,7.812-0.308l0.309,0.308c0,0-1.455,2.91,0.15,5.52l9.5,15.322c0.77,1.227,1.608,2.984,2.226,4.291
				l11.415-18.469c1.227-1.988,0.844-4.137-3.064-4.75v-1.914h12.488l0.307,1.071c0,0-2.987,0.996-5.287,4.675l-14.02,22.604v15.783
				c0,2.222-0.383,3.904-0.383,3.904l6.895,0.688l-0.307,2.146l-18.464,0.459L171.699,260.441L171.699,260.441z"/>
		</g>
	</g>
	<g>
		<path fill="#FFFFFF" d="M70.101,294.561c1.407-0.156,2.302-0.896,2.302-1.979V277.3c0-1.534-0.16-1.854-2.621-2.333v-0.8h7.929
			c3.676,0,7.831,1.183,7.831,5.882c0,5.146-4.826,6.842-8.279,6.49v-0.896c3.708-0.097,5.146-2.396,5.146-4.923
			c0-3.836-3.004-5.307-6.394-5.307h-0.479l-0.319,0.317v16.849c0,0.928-0.16,1.631-0.16,1.631l3.037,0.287l-0.127,0.896
			l-7.864,0.191L70.101,294.561L70.101,294.561z"/>
		<path fill="#FFFFFF" d="M87.555,294.656c1.438-0.16,1.982-0.928,1.982-2.078v-7.771c0-1.375-0.032-2.174-0.959-2.174H87.14v-0.859
			c3.133-0.643,5.179-1.504,5.179-1.504l0.096,0.098c0,0-0.287,1.055-0.383,4.06c0.959-1.79,2.652-3.708,4.315-3.708
			c0.767,0,1.726,0.383,1.726,1.475c0,0.959-0.67,1.562-1.502,1.562c-0.734,0-0.83-0.544-1.565-0.544
			c-1.087,0-2.142,1.056-2.845,1.854v7.512c0,0.959-0.16,1.727-0.16,1.727l3.037,0.287l-0.127,0.801l-7.354,0.19v-0.927H87.555
			L87.555,294.656z"/>
		<path fill="#FFFFFF" d="M106.928,280.719c4.667,0,7.064,3.068,7.064,7c0,3.965-2.461,8.152-7.576,8.152c-4.508,0-7-3.165-7-7.257
			C99.414,284.874,101.492,280.719,106.928,280.719z M106.863,294.784c2.717,0,4.188-2.749,4.188-6.171
			c0-3.164-1.278-6.812-4.507-6.812c-2.941,0-4.188,3.007-4.188,6.074C102.355,291.076,103.666,294.784,106.863,294.784z"/>
		<path fill="#FFFFFF" d="M120.353,290.564c-2.142-0.607-3.836-2.146-3.836-4.699c0-3.324,2.813-5.146,5.978-5.146
			c1.854,0,2.621,0.643,4.221,0.643h1.534c1.021,0,2.107-0.416,2.107-0.416l-0.289,2.078h-1.69c-0.703,0-1.119-0.1-1.119-0.1
			s1.312,1.119,1.312,3.133c0,3.01-2.877,4.797-6.072,4.797c-0.543,0-1.055-0.029-1.566-0.129c-0.225,0.26-0.799,0.896-0.799,1.346
			c0,0.859,1.918,1.088,4.412,1.599c2.686,0.544,5.562,1.438,5.562,4.028c0,3.133-4.188,5.369-8.121,5.369
			c-2.877,0-6.01-1.186-6.01-3.867c0-2.461,2.559-3.42,4.028-3.996c-1.503-0.383-2.653-0.959-2.653-2.045
			C117.348,291.811,119.203,291.172,120.353,290.564z M120.769,295.359c-0.769,0.512-2.271,1.69-2.271,3.453
			c0,1.979,1.918,3.033,4.029,3.033c2.333,0,4.923-1.275,4.923-3.229c0-1.63-1.89-2.271-3.999-2.718
			C122.559,295.711,121.632,295.551,120.769,295.359z M125.787,286.057c0-2.045-1.057-4.219-3.356-4.219
			c-2.237,0-3.133,1.949-3.133,3.963c0,1.982,0.927,3.936,3.292,3.936C124.893,289.732,125.787,287.943,125.787,286.057z"/>
		<path fill="#FFFFFF" d="M131.861,294.656c1.438-0.16,1.98-0.928,1.98-2.078v-7.771c0-1.375-0.031-2.174-0.959-2.174h-1.438v-0.859
			c3.136-0.643,5.182-1.504,5.182-1.504l0.096,0.098c0,0-0.287,1.055-0.384,4.06c0.959-1.79,2.649-3.708,4.313-3.708
			c0.77,0,1.729,0.383,1.729,1.475c0,0.959-0.671,1.562-1.503,1.562c-0.733,0-0.83-0.544-1.565-0.544
			c-1.086,0-2.142,1.056-2.846,1.854v7.512c0,0.959-0.158,1.727-0.158,1.727l3.035,0.287l-0.128,0.801l-7.354,0.19V294.656
			L131.861,294.656z"/>
		<path fill="#FFFFFF" d="M150.658,287.463l1.086-0.158c0.029-0.672,0.029-2.522-0.127-3.422c-0.229-1.183-0.832-2.045-2.018-2.045
			c-2.175,0-3.39,3.068-3.39,3.068h-1.022l-0.543-2.397c0,0,2.334-1.79,5.914-1.79c3.004,0,3.803,1.215,3.803,4.57v7.354
			c0,1.022,0.133,1.506,0.863,1.506c0.863,0,1.758-0.643,1.758-0.643l0.416,0.671c0,0-1.502,1.694-3.389,1.694
			c-1.215,0-2.174-0.703-2.174-2.271v-0.769c0,0-1.693,3.037-4.986,3.037c-2.108,0-3.324-1.502-3.324-3.229
			C143.529,289.573,147.333,287.975,150.658,287.463z M151.744,292.131v-3.771l-0.99,0.158c-1.822,0.287-4.412,1.246-4.412,3.551
			c0,1.275,0.832,1.979,1.791,1.979C149.379,294.049,150.913,292.834,151.744,292.131z"/>
		<path fill="#FFFFFF" d="M158.521,294.656c1.438-0.16,1.98-0.928,1.98-2.078v-7.771c0-1.375-0.031-2.174-0.959-2.174h-1.374v-0.859
			c3.133-0.643,5.11-1.504,5.11-1.504l0.101,0.098c0,0-0.289,1.021-0.385,3.867c1.147-1.662,3.194-3.52,5.784-3.52
			c2.048,0,3.354,1.15,3.354,3.678c1.216-1.92,3.325-3.678,5.851-3.678c2.078,0,3.425,1.119,3.425,4.314v7.545
			c0,0.959-0.16,1.727-0.16,1.727l2.717,0.287l-0.127,0.801l-6.873,0.19v-0.927c1.438-0.16,1.822-0.932,1.822-2.078v-6.842
			c0-2.433-0.675-3.068-1.854-3.068c-1.438,0-4.699,1.311-4.699,3.165v6.745c0,0.959-0.157,1.727-0.157,1.727l2.56,0.287l-0.129,0.8
			l-6.714,0.191v-0.929c1.438-0.158,1.819-0.93,1.819-2.076v-6.844c0-2.431-0.672-3.066-1.887-3.066
			c-1.438,0-3.229,0.861-4.603,2.236v7.674c0,0.959-0.16,1.727-0.16,1.727l2.558,0.287l-0.127,0.8l-6.873,0.191V294.656
			L158.521,294.656z"/>
	</g>
	<path fill="#66BE67" d="M195.971,76.949c0.65-0.814,1.426-1.619,1.998-2.436c7.225-10.402,10.963-21.177,10.807-31.164
		c-0.172-12.199-5.924-22.563-16.594-29.973c-19.391-13.475-43.283-7.133-59.312,15.941c-6.685,9.637-9.501,21.877-10.589,33.562
		c-6.92-15.011-17.899-30.316-28.896-37.958c-23.089-16.009-47.682-13.62-61.141,5.795c-7.412,10.671-9.168,22.39-5.078,33.882
		c3.354,9.41,10.617,18.201,21.02,25.422c5.838,4.054,13.684,7.254,22.124,9.602l-57.405,10.357l4.024,22.309l211.93-38.238
		l-4.022-22.309L195.971,76.949z M151.492,42.249c5.222-7.517,11.154-12.211,16.699-13.211c3.639-0.656,7.261,0.312,11.066,2.958
		c4.602,3.201,6.787,6.912,6.854,11.691c0.072,5.149-2.318,11.5-6.758,17.896c-6.082,8.759-22.293,18.974-34.771,23.731
		C143.962,72.65,144.025,53.02,151.492,42.249z M48.521,56.994c-1.597-4.503-0.856-8.741,2.354-13.354
		c2.641-3.811,5.689-5.982,9.324-6.639c5.551-1.001,12.744,1.324,20.26,6.541c10.828,7.523,21.26,26.364,24.938,37.872
		c-13.363,0.653-34.744-3.394-44.283-10.011C54.722,66.96,50.252,61.846,48.521,56.994z"/>
</g>
<g>
	<g>
		<path fill="#959595" d="M81.711,338.408c1.337,0,1.755-0.396,1.755-1.408v-6.248c0-1.012-0.376-1.299-1.859-1.299v-0.748h5.473
			l-0.083,0.705l-1.859,0.241V337c0,0.66-0.104,1.167-0.104,1.167l2.151,0.22l-0.083,0.66l-5.39,0.109V338.408z"/>
		<path fill="#959595" d="M96.041,334.977c0-2.992-1.086-5.787-2.82-5.787c-1.357,0-2.13,1.893-2.13,3.652
			c0,2.047,0.961,4.885,3.405,3.851l0.146,0.704c-0.605,0.374-1.253,0.551-1.942,0.551c-2.319,0-3.426-2.113-3.426-4.424
			c0-2.441,1.483-5.082,4.24-5.082c2.966,0,4.429,2.948,4.429,6.293c0,4.225-2.402,8.581-7.458,8.581l-0.125-0.771
			C94.433,342.281,96.041,338.496,96.041,334.977z"/>
		<path fill="#959595" d="M103.038,331.346c-1.274-1.122-2.402-2.332-2.402-3.895c0-1.893,1.587-3.344,3.906-3.344
			c2.089,0,3.468,1.231,3.468,3.058c0,1.915-1.462,2.882-2.758,3.741c1.567,1.32,3.217,2.684,3.217,4.555
			c0,2.023-1.858,3.85-4.324,3.85c-1.901,0-4.011-1.078-4.011-3.674C100.134,333.523,101.555,332.336,103.038,331.346z
			 M104.25,338.541c1.149,0,2.506-0.902,2.506-2.486c0-1.694-1.587-2.927-3.154-4.247c-1.044,0.837-1.776,1.915-1.776,3.565
			C101.826,337.396,102.955,338.541,104.25,338.541z M104.688,330.422c0.961-0.748,1.629-1.761,1.629-3.103
			c0-1.606-0.919-2.442-1.921-2.442c-0.961,0-2.047,0.77-2.047,2.09S103.435,329.344,104.688,330.422z"/>
		<path fill="#959595" d="M110.035,337.639l6.287-8.889l1.107-0.353l0.042,0.065c0,0-0.167,0.836-0.167,2.398V337h2.297l-0.25,1.299
			h-2.047v3.631c0,0.857-0.104,1.21-0.104,1.21l-1.608,0.176l-0.084-0.065c0,0,0.104-0.418,0.104-1.211v-3.74h-5.432
			L110.035,337.639z M115.612,337v-4.443c0-0.441,0.042-1.013,0.083-1.431L111.539,337H115.612z"/>
		<path fill="#959595" d="M121.544,332.82h4.93v1.451h-4.93V332.82z"/>
		<path fill="#959595" d="M128.374,338.365c1.588-1.496,4.596-4.094,4.596-6.602c0-1.387-0.856-1.914-1.817-1.914
			c-0.814,0-1.734,0.396-2.402,0.924l-0.396-0.484c0,0,1.295-1.848,3.571-1.848c1.421,0,2.945,0.88,2.945,2.75
			c0,1.849-1.858,4.049-4.387,6.293h3.029c1.441,0,1.797-0.924,2.109-1.87h0.606l-0.647,3.433h-7.04L128.374,338.365z"/>
		<path fill="#959595" d="M143.163,328.441c3.009,0,4.533,2.53,4.533,5.148c0,2.795-1.608,5.721-4.847,5.721
			c-3.008,0-4.532-2.662-4.532-5.28C138.317,331.236,139.926,328.441,143.163,328.441z M145.921,333.788
			c0-2.134-1.086-4.312-2.903-4.312c-1.859,0-2.925,2.2-2.925,4.356c0,2.244,1.086,4.445,2.903,4.445
			C144.855,338.277,145.921,336.055,145.921,333.788z"/>
		<path fill="#959595" d="M150.118,338.408c1.337,0,1.754-0.396,1.754-1.408v-6.248c0-1.012-0.376-1.299-1.858-1.299v-0.748h5.473
			l-0.084,0.705l-1.858,0.241V337c0,0.66-0.104,1.167-0.104,1.167l2.151,0.22l-0.084,0.66l-5.389,0.109V338.408z"/>
		<path fill="#959595" d="M162.046,338.519c0-2.024-1.672-2.552-3.092-2.552c-0.355,0-0.606,0.043-0.606,0.043v-1.033
			c1.505-0.154,3.259-1.519,3.259-3.345c0-1.078-0.585-1.937-1.733-1.937c-1.232,0-2.382,1.078-2.382,1.078l-0.396-0.484
			c0,0,1.295-1.848,3.426-1.848c1.692,0,2.987,1.034,2.987,2.729c0,1.738-1.859,3.256-3.175,3.828
			c2.256,0.242,3.634,1.496,3.634,3.191c0,3.652-3.593,5.126-6.204,5.126c-0.146,0-0.438-0.022-0.438-0.022l-0.125-0.77
			C159.246,342.523,162.046,341.621,162.046,338.519z"/>
	</g>
</g>
<line fill="none" stroke="#959595" stroke-width="0.9857" stroke-miterlimit="10" x1="17.744" y1="334.047" x2="72.5" y2="334.047"/>
<line fill="none" stroke="#959595" stroke-width="1.0492" stroke-miterlimit="10" x1="171.067" y1="334.047" x2="233.096" y2="334.047"/>
</svg>
