<?xml version="1.0" encoding="utf-8"?>
<!-- Generator: Adobe Illustrator 15.1.0, SVG Export Plug-In . SVG Version: 6.00 Build 0)  -->
<!DOCTYPE svg PUBLIC "-//W3C//DTD SVG 1.1//EN" "http://www.w3.org/Graphics/SVG/1.1/DTD/svg11.dtd">
<svg version="1.1" id="Layer_1" xmlns="http://www.w3.org/2000/svg" xmlns:xlink="http://www.w3.org/1999/xlink" x="0px" y="0px"
	 width="246px" height="333px" viewBox="0 0 246 333" enable-background="new 0 0 246 333" xml:space="preserve">
<g>
	<rect x="17.744" y="123.167" fill="#D12027" width="215.352" height="195.005"/>
	<g>
		<g>
			<path fill="#FFFFFF" d="M75.072,140.475c2.397,0,5.244,0.574,6.905,0.734l-0.959,4.859h-1.087c0-3.325-2.812-4.379-5.402-4.379
				c-4.923,0-8.184,3.963-8.184,9.143c0,5.754,4.027,9.622,9.238,9.622c3.996,0,6.425-2.271,6.425-2.271l0.448,0.672
				c0,0-2.397,3.708-7.961,3.708c-5.689,0-11.125-3.9-11.125-10.808C63.373,145.236,68.199,140.475,75.072,140.475z"/>
			<path fill="#FFFFFF" d="M91.662,154.156l1.088-0.16c0.031-0.671,0.031-2.525-0.129-3.42c-0.224-1.184-0.83-2.047-2.014-2.047
				c-2.174,0-3.388,3.07-3.388,3.07h-1.022l-0.543-2.397c0,0,2.332-1.791,5.914-1.791c3.004,0,3.803,1.215,3.803,4.571v7.353
				c0,1.023,0.129,1.502,0.863,1.502c0.863,0,1.758-0.64,1.758-0.64l0.416,0.672c0,0-1.502,1.694-3.389,1.694
				c-1.215,0-2.174-0.704-2.174-2.271v-0.767c0,0-1.693,3.037-4.987,3.037c-2.11,0-3.325-1.506-3.325-3.229
				C84.533,156.266,88.339,154.667,91.662,154.156z M92.75,158.823v-3.772l-0.991,0.16c-1.822,0.288-4.412,1.247-4.412,3.548
				c0,1.279,0.832,1.982,1.791,1.982C90.385,160.741,91.919,159.526,92.75,158.823z"/>
			<path fill="#FFFFFF" d="M99.527,161.349c1.438-0.157,1.981-0.927,1.981-2.075v-7.771c0-1.375-0.032-2.173-0.959-2.173h-1.375
				v-0.863c3.133-0.639,5.114-1.502,5.114-1.502l0.097,0.096c0,0-0.288,1.023-0.384,3.869c1.15-1.662,3.197-3.518,5.785-3.518
				c2.047,0,3.356,1.15,3.356,3.676c1.216-1.918,3.325-3.676,5.851-3.676c2.078,0,3.42,1.119,3.42,4.316v7.544
				c0,0.959-0.16,1.727-0.16,1.727l2.717,0.288l-0.127,0.799l-6.873,0.191v-0.93c1.438-0.157,1.822-0.927,1.822-2.075v-6.841
				c0-2.431-0.672-3.069-1.854-3.069c-1.438,0-4.698,1.311-4.698,3.165v6.747c0,0.959-0.16,1.727-0.16,1.727l2.558,0.288
				l-0.128,0.799l-6.713,0.191v-0.93c1.438-0.157,1.822-0.927,1.822-2.075v-6.841c0-2.431-0.672-3.069-1.887-3.069
				c-1.438,0-3.229,0.862-4.603,2.237v7.673c0,0.959-0.16,1.727-0.16,1.727l2.558,0.288l-0.127,0.799l-6.873,0.191V161.349
				L99.527,161.349z"/>
			<path fill="#FFFFFF" d="M126.539,169.084c1.438-0.799,1.662-1.533,1.662-3.004v-14.578c0-1.375-0.032-2.173-0.962-2.173h-1.276
				v-0.863c3.133-0.639,5.02-1.502,5.02-1.502l0.099,0.097c0,0-0.191,0.799-0.32,2.844c0.863-1.086,2.078-2.493,4.604-2.493
				c3.9,0,5.818,3.453,5.818,6.969c0,4.06-2.59,8.187-8.216,8.187c-0.863,0-1.534-0.1-2.145-0.192v3.677
				c0,0.959-0.157,1.821-0.157,1.821h3.354l-0.128,0.768c0,0-5.051,0.607-7.352,1.375V169.084L126.539,169.084z M138.398,155.307
				c0-3.068-1.343-6.041-4.188-6.041c-1.247,0-2.398,0.574-3.392,1.342v9.015c0,1.503,1.246,1.727,2.304,1.727
				C136.448,161.349,138.398,158.951,138.398,155.307z"/>
			<path fill="#FFFFFF" d="M144.824,158.887v-15.855c0-1.375-0.03-2.174-0.959-2.174h-1.344v-0.863
				c3.677-0.799,5.146-1.438,5.146-1.438l0.097,0.096c0,0-0.319,1.183-0.319,3.644v5.115c0,1.471-0.129,2.11-0.129,2.366
				c0.863-1.055,2.146-2.366,4.54-2.366c3.899,0,5.913,3.453,5.913,6.969c0,4.028-2.652,8.187-8.246,8.187
				c-1.727,0-3.771-0.387-4.892-0.387l-0.097-0.096C144.535,162.084,144.824,160.678,144.824,158.887z M149.778,161.349
				c3.104,0,5.211-2.396,5.211-6.042c0-3.068-1.471-6.041-4.348-6.041c-1.407,0-2.718,0.734-3.196,1.183V160.9
				C147.445,160.9,148.436,161.349,149.778,161.349z"/>
			<path fill="#FFFFFF" d="M166.945,147.411c2.748,0,5.469,1.791,5.562,5.307c0,0-0.831,0.32-1.47,0.416l-7.961,1.151l-0.319,0.384
				c0.128,2.909,1.599,5.754,5.179,5.754c2.621,0,4.156-1.534,4.156-1.534l0.352,0.668c0,0-1.661,3.008-5.467,3.008
				c-4.539,0-6.774-3.551-6.774-7.291C160.199,150.927,163.076,147.411,166.945,147.411z M162.82,153.133l6.717-0.863
				c0,0-0.259-3.645-3.069-3.645C164.323,148.625,163.108,150.734,162.82,153.133z"/>
			<path fill="#FFFFFF" d="M174.584,161.349c1.438-0.157,1.979-0.927,1.979-2.075v-16.239c0-1.375-0.028-2.175-0.959-2.175h-1.343
				v-0.862c3.677-0.8,5.147-1.438,5.147-1.438l0.096,0.096c0,0-0.32,1.184-0.32,3.645v16.978c0,0.959-0.16,1.727-0.16,1.727
				l2.721,0.288l-0.128,0.799l-7.033,0.191V161.349L174.584,161.349z"/>
			<path fill="#FFFFFF" d="M183.119,161.349c1.438-0.157,1.979-0.927,1.979-2.075v-16.239c0-1.375-0.031-2.175-0.959-2.175h-1.343
				v-0.862c3.677-0.8,5.146-1.438,5.146-1.438l0.099,0.096c0,0-0.32,1.184-0.32,3.645v16.978c0,0.959-0.16,1.727-0.16,1.727
				l2.718,0.288l-0.128,0.799l-7.03,0.191L183.119,161.349L183.119,161.349z"/>
			<path fill="#FFFFFF" d="M57.875,170.37c2.396,0,5.242,0.575,6.904,0.735l-0.959,4.856h-1.086c0-3.325-2.813-4.38-5.402-4.38
				c-4.924,0-8.185,3.964-8.185,9.143c0,5.757,4.028,9.622,9.238,9.622c3.996,0,6.425-2.27,6.425-2.27l0.448,0.671
				c0,0-2.397,3.708-7.96,3.708c-5.689,0-11.125-3.9-11.125-10.805C46.175,175.133,51.002,170.37,57.875,170.37z"/>
			<path fill="#FFFFFF" d="M74.976,177.307c4.667,0,7.065,3.068,7.065,7.001c0,3.967-2.463,8.151-7.577,8.151
				c-4.507,0-7-3.164-7-7.256C67.464,181.463,69.541,177.307,74.976,177.307z M74.912,191.373c2.717,0,4.188-2.75,4.188-6.17
				c0-3.165-1.277-6.812-4.507-6.812c-2.94,0-4.188,3.008-4.188,6.073C70.404,187.664,71.716,191.373,74.912,191.373z"/>
			<path fill="#FFFFFF" d="M84.438,191.244c1.438-0.16,1.982-0.927,1.982-2.078v-7.768c0-1.375-0.032-2.177-0.959-2.177h-1.375
				v-0.86c3.133-0.642,5.114-1.502,5.114-1.502l0.097,0.096c0,0-0.288,1.021-0.384,3.868c1.15-1.662,3.197-3.52,5.785-3.52
				c2.047,0,3.356,1.15,3.356,3.679c1.215-1.918,3.325-3.679,5.851-3.679c2.078,0,3.42,1.119,3.42,4.316v7.543
				c0,0.959-0.16,1.727-0.16,1.727l2.717,0.288l-0.127,0.8l-6.873,0.191v-0.928c1.438-0.16,1.822-0.927,1.822-2.078v-6.84
				c0-2.433-0.672-3.069-1.854-3.069c-1.438,0-4.698,1.312-4.698,3.165v6.744c0,0.959-0.16,1.727-0.16,1.727l2.558,0.288l-0.128,0.8
				l-6.713,0.191v-0.928c1.438-0.16,1.822-0.929,1.822-2.078v-6.84c0-2.433-0.672-3.069-1.887-3.069
				c-1.438,0-3.229,0.863-4.604,2.237v7.672c0,0.959-0.159,1.727-0.159,1.727l2.558,0.288l-0.128,0.8l-6.873,0.191V191.244
				L84.438,191.244z"/>
			<path fill="#FFFFFF" d="M111.419,191.244c1.438-0.16,1.981-0.927,1.981-2.078v-7.768c0-1.375-0.031-2.177-0.959-2.177h-1.375
				v-0.86c3.133-0.642,5.115-1.502,5.115-1.502l0.096,0.096c0,0-0.287,1.021-0.384,3.868c1.151-1.662,3.197-3.52,5.786-3.52
				c2.046,0,3.356,1.15,3.356,3.679c1.215-1.918,3.322-3.679,5.85-3.679c2.078,0,3.42,1.119,3.42,4.316v7.543
				c0,0.959-0.159,1.727-0.159,1.727l2.717,0.288l-0.128,0.8l-6.873,0.191v-0.928c1.439-0.16,1.822-0.927,1.822-2.078v-6.84
				c0-2.433-0.671-3.069-1.854-3.069c-1.439,0-4.699,1.312-4.699,3.165v6.744c0,0.959-0.16,1.727-0.16,1.727l2.558,0.288l-0.128,0.8
				l-6.713,0.191v-0.928c1.438-0.16,1.822-0.929,1.822-2.078v-6.84c0-2.433-0.671-3.069-1.886-3.069
				c-1.438,0-3.229,0.863-4.604,2.237v7.672c0,0.959-0.16,1.727-0.16,1.727l2.558,0.288l-0.128,0.8l-6.873,0.191L111.419,191.244
				L111.419,191.244z"/>
			<path fill="#FFFFFF" d="M139.869,181.398c0-1.375-0.031-2.177-0.959-2.177h-1.119v-0.895c3.102-0.544,4.856-1.187,4.856-1.187
				l0.128,0.1c0,0-0.288,0.896-0.288,3.354v6.844c0,2.43,0.863,3.066,2.177,3.066c1.471,0,3.261-0.863,4.636-2.27v-6.843
				c0-1.375-0.032-2.176-0.959-2.176h-1.056v-0.895c3.066-0.544,4.795-1.187,4.795-1.187l0.129,0.1c0,0-0.288,0.896-0.288,3.354
				v8.439c0,1.821,0.732,1.821,1.79,1.821h0.895l-0.096,0.861c-3.484,0.354-5.242,0.641-5.242,0.641l-0.128-0.098
				c0,0,0.288-0.928,0.288-1.727v-1.662c-1.15,1.693-3.261,3.58-5.946,3.58c-2.234,0-3.609-1.216-3.609-4.283L139.869,181.398
				L139.869,181.398z"/>
			<path fill="#FFFFFF" d="M156.204,191.244c1.438-0.16,1.979-0.927,1.979-2.078v-7.768c0-1.375-0.031-2.177-0.959-2.177h-1.438
				v-0.86c3.133-0.642,5.111-1.502,5.111-1.502l0.099,0.096c0,0-0.288,1.055-0.319,3.897c1.15-1.727,3.389-3.549,6.073-3.549
				c2.206,0,3.645,1.215,3.645,4.316v7.543c0,0.959-0.159,1.695-0.159,1.695l2.72,0.316l-0.128,0.8l-6.873,0.191v-0.928
				c1.438-0.16,1.819-0.93,1.819-2.078v-6.84c0-2.433-0.927-3.069-2.206-3.069c-1.471,0-3.42,0.863-4.764,2.237v7.672
				c0,0.959-0.159,1.695-0.159,1.695l2.561,0.316l-0.128,0.8l-6.873,0.191V191.244L156.204,191.244z"/>
			<path fill="#FFFFFF" d="M174.488,191.244c1.439-0.16,1.982-0.927,1.982-2.078v-7.768c0-1.375-0.032-2.177-0.959-2.177h-1.438
				v-0.86c4.667-1.086,5.342-1.502,5.342-1.502l0.028,0.096c0,0-0.352,1.055-0.352,3.645v8.566c0,0.959-0.16,1.727-0.16,1.727
				l2.718,0.288l-0.128,0.8l-7.033,0.191V191.244z M175.768,172.32c0-0.931,0.799-1.729,1.729-1.729
				c0.926,0,1.726,0.799,1.726,1.729c0,0.927-0.8,1.727-1.726,1.727C176.566,174.047,175.768,173.247,175.768,172.32z"/>
			<path fill="#FFFFFF" d="M184.91,181.398c0-0.93,0.096-2.078,0.096-2.078h-2.109v-0.959c0,0,1.406-0.287,2.174-0.99l1.185-3.484
				l1.438,0.031l0.099,0.096c0,0-0.287,0.931-0.287,3.197v0.479h4.983l-0.224,1.531h-4.411l-0.32,0.32v8.119
				c0,1.854,0.544,2.877,2.238,2.877c1.438,0,2.877-0.671,2.877-0.671l0.415,0.604c0,0-1.82,1.981-4.603,1.981
				c-2.271,0-3.549-1.278-3.549-4.188L184.91,181.398L184.91,181.398z"/>
			<path fill="#FFFFFF" d="M198.879,194.602l1.021-2.396c-0.157-0.447-0.416-1.184-0.768-2.078l-4.092-9.781
				c-0.673-1.598-1.791-1.854-1.791-1.854v-0.8h1.503c2.015,0,3.261-0.131,3.261-0.131l0.128,0.131
				c-0.384,0.767-0.384,2.075-0.032,2.938l2.59,6.49c0.191,0.543,0.447,1.342,0.607,1.918l3.612-8.248
				c0.544-1.278-0.575-1.982-1.762-2.301v-0.8h4.443l0.16,0.512c0,0-0.575,0.319-1.15,1.694l-5.528,12.562
				c-0.862,1.918-2.688,7.193-5.755,7.193c-0.929,0-1.405-0.643-1.405-1.347c0-0.639,0.416-1.311,1.563-1.311
				C197.185,196.998,198.304,195.912,198.879,194.602z"/>
		</g>
	</g>
	<g>
		<g>
			<path fill="#FFFFFF" stroke="#FFFFFF" stroke-width="1.0134" stroke-miterlimit="10" d="M65.06,260.441
				c3.448-0.386,5.517-2.226,5.517-4.98v-40.912H62.99c-5.285,0-7.584,1.609-10.496,9.5H49.89l2.375-12.947
				c0,0,1.992,0.463,5.133,0.463h35.855c3.142,0,5.517-0.463,5.517-0.463l-2.375,12.947h-2.605c0.384-7.891-2.146-9.5-8.12-9.5
				h-7.585l-0.766,0.77v40.146c0,2.299-0.384,4.138-0.384,4.138l7.662,0.689l-0.308,2.146l-19.229,0.459V260.441z"/>
			<path fill="#FFFFFF" stroke="#FFFFFF" stroke-width="1.0134" stroke-miterlimit="10" d="M129.643,210.643
				c16.012,0,26.202,10.805,26.202,24.672c0,14.634-11.188,28.271-28.118,28.271c-15.706,0-25.895-11.875-25.895-25.818
				C101.832,223.973,111.715,210.643,129.643,210.643z M129.26,260.518c12.028,0,19-12.104,19-23.291
				c0-11.489-7.201-23.52-19.92-23.52c-11.952,0-18.924,10.803-18.924,22.064C109.416,247.188,116.617,260.518,129.26,260.518z"/>
			<path fill="#FFFFFF" stroke="#FFFFFF" stroke-width="1.0134" stroke-miterlimit="10" d="M171.699,260.441
				c3.371-0.386,5.52-2.146,5.52-4.75v-15.629l-14.71-23.218c-1.839-2.911-4.062-3.371-4.062-3.371v-1.915h3.68
				c4.825,0,7.812-0.307,7.812-0.307l0.309,0.307c0,0-1.455,2.911,0.151,5.52l9.5,15.322c0.769,1.227,1.608,2.985,2.225,4.291
				l11.415-18.468c1.227-1.989,0.844-4.137-3.064-4.75v-1.915h12.488l0.307,1.072c0,0-2.988,0.996-5.287,4.674l-14.02,22.604v15.783
				c0,2.222-0.383,3.904-0.383,3.904l6.895,0.689l-0.307,2.146l-18.464,0.459L171.699,260.441L171.699,260.441z"/>
		</g>
	</g>
	<g>
		<path fill="#FFFFFF" d="M70.101,294.561c1.407-0.157,2.302-0.896,2.302-1.979V277.3c0-1.534-0.16-1.854-2.621-2.333v-0.8h7.929
			c3.676,0,7.831,1.183,7.831,5.882c0,5.146-4.826,6.842-8.279,6.49v-0.896c3.708-0.097,5.146-2.396,5.146-4.923
			c0-3.836-3.004-5.307-6.394-5.307h-0.479l-0.319,0.317v16.849c0,0.928-0.16,1.631-0.16,1.631l3.037,0.287l-0.127,0.896
			l-7.864,0.191L70.101,294.561L70.101,294.561z"/>
		<path fill="#FFFFFF" d="M87.555,294.656c1.438-0.16,1.982-0.928,1.982-2.078v-7.771c0-1.375-0.032-2.174-0.959-2.174H87.14v-0.86
			c3.133-0.642,5.179-1.503,5.179-1.503l0.096,0.097c0,0-0.287,1.055-0.383,4.06c0.959-1.79,2.652-3.708,4.315-3.708
			c0.767,0,1.726,0.383,1.726,1.474c0,0.959-0.67,1.563-1.502,1.563c-0.734,0-0.83-0.544-1.565-0.544
			c-1.087,0-2.142,1.055-2.845,1.854v7.512c0,0.959-0.16,1.727-0.16,1.727l3.037,0.287l-0.127,0.8l-7.354,0.191v-0.927H87.555
			L87.555,294.656z"/>
		<path fill="#FFFFFF" d="M106.928,280.719c4.667,0,7.064,3.068,7.064,7c0,3.965-2.461,8.152-7.576,8.152c-4.508,0-7-3.165-7-7.257
			C99.414,284.874,101.492,280.719,106.928,280.719z M106.863,294.784c2.717,0,4.188-2.749,4.188-6.17
			c0-3.165-1.278-6.812-4.507-6.812c-2.941,0-4.188,3.006-4.188,6.074C102.355,291.076,103.666,294.784,106.863,294.784z"/>
		<path fill="#FFFFFF" d="M120.353,290.564c-2.142-0.607-3.836-2.146-3.836-4.699c0-3.324,2.813-5.146,5.978-5.146
			c1.854,0,2.621,0.642,4.221,0.642h1.534c1.021,0,2.107-0.415,2.107-0.415l-0.288,2.077h-1.691c-0.703,0-1.119-0.099-1.119-0.099
			s1.311,1.119,1.311,3.133c0,3.009-2.877,4.797-6.072,4.797c-0.543,0-1.055-0.03-1.566-0.129c-0.225,0.259-0.799,0.896-0.799,1.345
			c0,0.86,1.918,1.088,4.412,1.599c2.686,0.544,5.562,1.438,5.562,4.028c0,3.133-4.188,5.37-8.12,5.37
			c-2.877,0-6.01-1.186-6.01-3.868c0-2.461,2.559-3.42,4.028-3.996c-1.503-0.383-2.653-0.959-2.653-2.045
			C117.348,291.811,119.203,291.172,120.353,290.564z M120.769,295.359c-0.769,0.512-2.271,1.691-2.271,3.453
			c0,1.979,1.918,3.033,4.029,3.033c2.332,0,4.923-1.275,4.923-3.229c0-1.63-1.889-2.271-3.999-2.718
			C122.559,295.711,121.632,295.551,120.769,295.359z M125.787,286.057c0-2.045-1.057-4.219-3.356-4.219
			c-2.237,0-3.133,1.949-3.133,3.963c0,1.982,0.927,3.936,3.292,3.936C124.893,289.733,125.787,287.943,125.787,286.057z"/>
		<path fill="#FFFFFF" d="M131.861,294.656c1.438-0.16,1.981-0.928,1.981-2.078v-7.771c0-1.375-0.032-2.174-0.959-2.174h-1.438
			v-0.86c3.136-0.642,5.182-1.503,5.182-1.503l0.096,0.097c0,0-0.288,1.055-0.384,4.06c0.959-1.79,2.65-3.708,4.313-3.708
			c0.77,0,1.729,0.383,1.729,1.474c0,0.959-0.671,1.563-1.503,1.563c-0.734,0-0.83-0.544-1.566-0.544
			c-1.086,0-2.141,1.055-2.845,1.854v7.512c0,0.959-0.159,1.727-0.159,1.727l3.036,0.287l-0.128,0.8l-7.354,0.191V294.656
			L131.861,294.656z"/>
		<path fill="#FFFFFF" d="M150.658,287.463l1.086-0.159c0.029-0.671,0.029-2.522-0.127-3.421c-0.228-1.183-0.832-2.045-2.018-2.045
			c-2.174,0-3.389,3.068-3.389,3.068h-1.022l-0.543-2.397c0,0,2.333-1.79,5.913-1.79c3.005,0,3.804,1.215,3.804,4.57v7.354
			c0,1.022,0.132,1.505,0.863,1.505c0.863,0,1.758-0.642,1.758-0.642l0.416,0.671c0,0-1.502,1.694-3.389,1.694
			c-1.215,0-2.174-0.703-2.174-2.271v-0.769c0,0-1.693,3.037-4.986,3.037c-2.109,0-3.324-1.502-3.324-3.229
			C143.529,289.573,147.333,287.975,150.658,287.463z M151.744,292.131v-3.771l-0.99,0.157c-1.822,0.288-4.412,1.247-4.412,3.551
			c0,1.276,0.832,1.979,1.791,1.979C149.379,294.049,150.913,292.834,151.744,292.131z"/>
		<path fill="#FFFFFF" d="M158.521,294.656c1.438-0.16,1.981-0.928,1.981-2.078v-7.771c0-1.375-0.032-2.174-0.959-2.174h-1.374
			v-0.86c3.133-0.642,5.111-1.503,5.111-1.503l0.1,0.097c0,0-0.289,1.021-0.385,3.867c1.148-1.662,3.194-3.519,5.784-3.519
			c2.048,0,3.355,1.15,3.355,3.677c1.215-1.919,3.325-3.677,5.851-3.677c2.077,0,3.424,1.119,3.424,4.315v7.544
			c0,0.959-0.16,1.727-0.16,1.727l2.717,0.287l-0.127,0.8l-6.873,0.191v-0.927c1.438-0.16,1.822-0.931,1.822-2.078v-6.841
			c0-2.433-0.675-3.069-1.855-3.069c-1.438,0-4.699,1.311-4.699,3.165v6.745c0,0.959-0.157,1.727-0.157,1.727l2.559,0.287
			l-0.128,0.8l-6.714,0.191v-0.928c1.438-0.159,1.819-0.93,1.819-2.077v-6.843c0-2.431-0.671-3.067-1.886-3.067
			c-1.438,0-3.229,0.862-4.603,2.237v7.673c0,0.959-0.16,1.727-0.16,1.727l2.557,0.287l-0.127,0.8l-6.873,0.191V294.656
			L158.521,294.656z"/>
	</g>
	<path fill="#66BE67" d="M195.971,76.949c0.65-0.814,1.426-1.619,1.998-2.436c7.224-10.402,10.963-21.177,10.807-31.164
		c-0.173-12.199-5.924-22.563-16.594-29.973c-19.391-13.475-43.283-7.133-59.312,15.941c-6.684,9.637-9.501,21.877-10.589,33.562
		c-6.92-15.011-17.899-30.316-28.896-37.958C70.296,8.912,45.703,11.301,32.244,30.716c-7.412,10.671-9.168,22.39-5.078,33.882
		c3.354,9.41,10.617,18.201,21.02,25.422c5.838,4.054,13.684,7.254,22.124,9.602l-57.405,10.357l4.024,22.309L228.859,94.05
		l-4.022-22.309L195.971,76.949z M151.492,42.249c5.222-7.517,11.154-12.211,16.7-13.211c3.638-0.656,7.26,0.312,11.066,2.958
		c4.602,3.201,6.787,6.912,6.853,11.691c0.073,5.149-2.318,11.5-6.758,17.896c-6.081,8.759-22.292,18.974-34.771,23.731
		C143.962,72.65,144.025,53.02,151.492,42.249z M48.521,56.994c-1.597-4.503-0.856-8.741,2.354-13.354
		c2.641-3.811,5.689-5.982,9.324-6.639c5.551-1.001,12.744,1.324,20.26,6.541c10.828,7.523,21.26,26.364,24.938,37.872
		c-13.363,0.653-34.744-3.394-44.283-10.011C54.722,66.96,50.252,61.846,48.521,56.994z"/>
</g>
</svg>
