<?xml version="1.0"?>
<svg width="246" height="355" xmlns="http://www.w3.org/2000/svg" xmlns:svg="http://www.w3.org/2000/svg">
 <g>
  <title>Layer 1</title>
  <g id="svg_1">
   <g id="svg_2">
    <path fill="#959595" d="m80.698151,342.317902c1.299995,0 1.799995,-0.400024 1.799995,-1.400024l0,-6.199951c0,-1 -0.400002,-1.300049 -1.900002,-1.300049l0,-0.699951l5.5,0l-0.099998,0.699951l-1.900002,0.200012l0,7.299988c0,0.700012 -0.099998,1.200012 -0.099998,1.200012l2.200005,0.200012l-0.100014,0.700012l-5.399986,0.099976l0,-0.799988z" id="svg_3"/>
    <path fill="#959595" d="m94.998146,338.917877c0,-3 -1.099998,-5.799988 -2.799995,-5.799988c-1.400002,0 -2.100014,1.899963 -2.100014,3.700012c0,2 1,4.899963 3.400002,3.899963l0.099998,0.700012c-0.599998,0.400024 -1.300003,0.5 -1.899986,0.5c-2.300003,0 -3.400002,-2.099976 -3.400002,-4.400024c0,-2.399963 1.5,-5.099976 4.199997,-5.099976c3,0 4.400002,2.900024 4.400002,6.299988c0,4.200012 -2.400002,8.600037 -7.5,8.600037l-0.099998,-0.800049c4.099998,-0.299927 5.699997,-4.099976 5.699997,-7.599976z" id="svg_4"/>
    <path fill="#959595" d="m101.998146,335.317902c-1.299995,-1.099976 -2.400002,-2.299988 -2.400002,-3.900024c0,-1.899963 1.600014,-3.299988 3.900002,-3.299988c2.099998,0 3.5,1.200012 3.5,3.100037c0,1.899963 -1.5,2.899963 -2.799995,3.699951c1.599998,1.300049 3.199997,2.700012 3.199997,4.600037c0,2 -1.900002,3.899963 -4.300003,3.899963c-1.899986,0 -4,-1.099976 -4,-3.699951c0,-2.300049 1.5,-3.5 2.900002,-4.400024zm1.300003,7.200012c1.099998,0 2.5,-0.900024 2.5,-2.5c0,-1.700012 -1.599998,-2.900024 -3.200005,-4.200012c-1,0.799988 -1.799995,1.900024 -1.799995,3.600037c0,1.899963 1.199997,3.099976 2.5,3.099976zm0.400002,-8.200012c1,-0.700012 1.599998,-1.799988 1.599998,-3.099976c0,-1.600037 -0.900002,-2.400024 -1.900002,-2.400024c-1,0 -2,0.799988 -2,2.099976s1,2.400024 2.300003,3.400024z" id="svg_5"/>
    <path fill="#959595" d="m108.998146,341.517914l6.300003,-8.900024l1.099998,-0.399963l0,0.099976c0,0 -0.199997,0.799988 -0.199997,2.400024l0,6.099976l2.299995,0l-0.199997,1.299988l-2,0l0,3.600037c0,0.899963 -0.099998,1.200012 -0.099998,1.200012l-1.600014,0.199951l-0.099998,-0.099976c0,0 0.099998,-0.400024 0.099998,-1.200012l0,-3.700012l-5.399986,0l-0.200005,-0.599976zm5.599998,-0.600037l0,-4.400024c0,-0.399963 0,-1 0.100014,-1.399963l-4.199997,5.899963l4.099998,0l0,-0.099976l-0.000015,0z" id="svg_6"/>
    <path fill="#959595" d="m120.598152,336.717926l4.899994,0l0,1.5l-4.899994,0l0,-1.5z" id="svg_7"/>
    <path fill="#959595" d="m127.398148,342.317902c1.599991,-1.5 4.599991,-4.099976 4.599991,-6.599976c0,-1.400024 -0.899994,-1.900024 -1.799988,-1.900024c-0.800003,0 -1.700012,0.400024 -2.400002,0.900024l-0.400002,-0.5c0,0 1.300003,-1.800049 3.599991,-1.800049c1.400009,0 2.900009,0.900024 2.900009,2.800049c0,1.799988 -1.900009,4 -4.399994,6.299988l3,0c1.399994,0 1.800003,-0.900024 2.099991,-1.900024l0.600006,0l-0.600006,3.400024l-6.999992,0l-0.200005,-0.700012z" id="svg_8"/>
    <path fill="#959595" d="m142.198151,332.417877c3,0 4.5,2.5 4.5,5.099976c0,2.800049 -1.600006,5.700012 -4.800003,5.700012c-3,0 -4.5,-2.700012 -4.5,-5.299988c-0.099991,-2.799988 1.5,-5.5 4.800003,-5.5zm2.699997,5.300049c0,-2.099976 -1.099991,-4.299988 -2.900009,-4.299988c-1.899994,0 -2.899994,2.200012 -2.899994,4.399963c0,2.200012 1.100006,4.400024 2.899994,4.400024c1.900009,0 2.900009,-2.200012 2.900009,-4.5z" id="svg_9"/>
    <path fill="#959595" d="m149.098145,342.317902c1.300003,0 1.800003,-0.400024 1.800003,-1.400024l0,-6.199951c0,-1 -0.399994,-1.300049 -1.899994,-1.300049l0,-0.699951l5.5,0l-0.100006,0.699951l-1.899994,0.200012l0,7.299988c0,0.700012 -0.100006,1.200012 -0.100006,1.200012l2.199997,0.200012l-0.099991,0.700012l-5.400009,0.099976l0,-0.799988z" id="svg_10"/>
    <path fill="#959595" d="m156.098145,341.517914l6.300003,-8.900024l1.100006,-0.399963l0,0.099976c0,0 -0.200012,0.799988 -0.200012,2.400024l0,6.099976l2.300003,0l-0.199997,1.299988l-2,0l0,3.600037c0,0.899963 -0.100006,1.200012 -0.100006,1.200012l-1.599991,0.199951l-0.100006,-0.099976c0,0 0.100006,-0.400024 0.100006,-1.200012l0,-3.700012l-5.400009,0l-0.199997,-0.599976zm5.600006,-0.600037l0,-4.400024c0,-0.399963 0,-1 0.099991,-1.399963l-4.199997,5.899963l4.100006,0l0,-0.099976z" id="svg_11"/>
   </g>
  </g>
  <g id="svg_12">
   <rect x="16.598148" y="127.017902" fill="#D12027" width="215.4" height="195" id="svg_13"/>
   <g id="svg_14">
    <g id="svg_15">
     <path fill="#FFFFFF" d="m73.998146,144.317902c2.400002,0 5.200005,0.600006 6.900002,0.700012l-1,4.899994l-1.099998,0c0,-3.300018 -2.800003,-4.399994 -5.400002,-4.399994c-4.900002,0 -8.199997,4 -8.199997,9.099976c0,5.800018 4,9.600006 9.199997,9.600006c4,0 6.400002,-2.299988 6.400002,-2.299988l0.400002,0.699982c0,0 -2.400002,3.700012 -8,3.700012c-5.700005,0 -11.100014,-3.899994 -11.100014,-10.799988c0.199997,-6.5 5,-11.200012 11.900002,-11.200012l0.000008,0z" id="svg_16"/>
     <path fill="#FFFFFF" d="m90.598145,158.017914l1.100014,-0.200012c0,-0.699982 0,-2.5 -0.100014,-3.399994c-0.199997,-1.199982 -0.799995,-2 -2,-2c-2.199997,0 -3.399986,3.100006 -3.399986,3.100006l-1,0l-0.5,-2.399994c0,0 2.300003,-1.800018 5.899986,-1.800018c3,0 3.800003,1.200012 3.800003,4.600006l0,7.399994c0,1 0.099998,1.5 0.900002,1.5c0.900002,0 1.799995,-0.599976 1.799995,-0.599976l0.400002,0.699982c0,0 -1.5,1.700012 -3.400002,1.700012c-1.199997,0 -2.199997,-0.700012 -2.199997,-2.300018l0,-0.799988c0,0 -1.699997,3 -5,3c-2.099998,0 -3.300003,-1.5 -3.300003,-3.200012c-0.199997,-3.200012 3.600014,-4.799988 7,-5.299988zm1.100014,4.599976l0,-3.799988l-1,0.199982c-1.800003,0.300018 -4.400002,1.200012 -4.400002,3.5c0,1.300018 0.800003,2 1.800003,2c1.199997,0.000031 2.699997,-1.199982 3.600006,-1.899994l-0.000008,0z" id="svg_17"/>
     <path fill="#FFFFFF" d="m98.398148,165.117889c1.400002,-0.200012 2,-0.899994 2,-2.100006l0,-7.799988c0,-1.399994 0,-2.200012 -1,-2.200012l-1.400002,0l0,-0.899994c3.099998,-0.600006 5.099998,-1.5 5.099998,-1.5l0.100014,0.100006c0,0 -0.300003,1 -0.400002,3.899994c1.200005,-1.700012 3.200005,-3.5 5.800003,-3.5c2,0 3.400002,1.100006 3.400002,3.700012c1.199997,-1.900024 3.299995,-3.700012 5.899994,-3.700012c2.100006,0 3.400002,1.100006 3.400002,4.299988l0,7.5c0,1 -0.200005,1.700012 -0.200005,1.700012l2.700005,0.299988l-0.099998,0.800018l-6.900002,0.199982l0,-0.899994c1.400002,-0.199982 1.800003,-0.899994 1.800003,-2.100006l0,-6.799988c0,-2.399994 -0.700005,-3.100006 -1.900002,-3.100006c-1.400002,0 -4.699997,1.300018 -4.699997,3.200012l0,6.699982c0,1 -0.200005,1.700012 -0.200005,1.700012l2.599998,0.299988l-0.099998,0.800018l-6.699997,0.199982l0,-0.899994c1.400002,-0.199982 1.799995,-0.899994 1.799995,-2.100006l0,-6.799988c0,-2.399994 -0.699997,-3.100006 -1.899994,-3.100006c-1.400002,0 -3.200005,0.899963 -4.600006,2.200012l0,7.699951c0,1 -0.199997,1.700012 -0.199997,1.700012l2.599998,0.299988l-0.099998,0.800049l-6.900002,0.199951l0.099998,-0.799988l0,0l-0.000008,0.000031z" id="svg_18"/>
     <path fill="#FFFFFF" d="m125.398148,172.917908c1.400002,-0.799988 1.699997,-1.5 1.699997,-3l0,-14.600006c0,-1.399994 0,-2.199982 -1,-2.199982l-1.199997,0l0,-0.899994c3.099998,-0.600006 5,-1.5 5,-1.5l0.099991,0.099976c0,0 -0.199982,0.800018 -0.299988,2.800018c0.899994,-1.100006 2.100006,-2.5 4.600006,-2.5c3.899994,0 5.799988,3.5 5.799988,7c0,4.100037 -2.599991,8.199982 -8.199997,8.199982c-0.900009,0 -1.5,-0.099976 -2.099991,-0.199982l0,3.699982c0,1 -0.200012,1.800018 -0.200012,1.800018l3.399994,0l-0.099991,0.799988c0,0 -5.099998,0.600037 -7.400002,1.399994l-0.099998,-0.899994l0,0zm11.900009,-13.800018c0,-3.100006 -1.300018,-6 -4.200012,-6c-1.199997,0 -2.399994,0.600006 -3.399994,1.299988l0,9c0,1.5 1.199997,1.700012 2.299988,1.700012c3.300018,0 5.300018,-2.299988 5.300018,-6z" id="svg_19"/>
     <path fill="#FFFFFF" d="m143.698151,162.717896l0,-15.899994c0,-1.399994 0,-2.200012 -1,-2.200012l-1.300003,0l0,-0.799988c3.699997,-0.799988 5.100006,-1.399994 5.100006,-1.399994l0.099991,0.100006c0,0 -0.299988,1.199982 -0.299988,3.599976l0,5.100037c0,1.5 -0.100006,2.100006 -0.100006,2.399963c0.899994,-1.099976 2.100006,-2.399963 4.5,-2.399963c3.899994,0 5.899994,3.5 5.899994,7c0,4 -2.699997,8.199982 -8.199997,8.199982c-1.699997,0 -3.800003,-0.399963 -4.899994,-0.399963l-0.100006,-0.100037c0,0 0.300003,-1.399963 0.300003,-3.199982l0,-0.000031zm5,2.399994c3.099991,0 5.199997,-2.399994 5.199997,-6c0,-3.100006 -1.5,-6 -4.300003,-6c-1.399994,0 -2.699997,0.700012 -3.199997,1.200012l0,10.5c-0.099991,-0.100006 0.900009,0.299988 2.300003,0.299988z" id="svg_20"/>
     <path fill="#FFFFFF" d="m165.798141,151.217896c2.700012,0 5.5,1.799988 5.600006,5.299988c0,0 -0.800003,0.300018 -1.5,0.399994l-8,1.200012l-0.300003,0.399994c0.100006,2.899963 1.600006,5.800018 5.199997,5.800018c2.600006,0 4.200012,-1.5 4.200012,-1.5l0.399994,0.699982c0,0 -1.699997,3 -5.5,3c-4.5,0 -6.800003,-3.600037 -6.800003,-7.299988c0,-4.5 2.900009,-8 6.699997,-8zm-4.099991,5.700012l6.699997,-0.899994c0,0 -0.300003,-3.600006 -3.100006,-3.600006c-2.099991,0 -3.299988,2.100006 -3.599991,4.5z" id="svg_21"/>
     <path fill="#FFFFFF" d="m173.498154,165.117889c1.399994,-0.200012 2,-0.899994 2,-2.100006l0,-16.199982c0,-1.399994 0,-2.200012 -1,-2.200012l-1.300003,0l0,-0.799988c3.699997,-0.799988 5.099991,-1.399994 5.099991,-1.399994l0.100006,0.100006c0,0 -0.300003,1.199982 -0.300003,3.599976l0,17c0,1 -0.199997,1.700012 -0.199997,1.700012l2.699997,0.299988l-0.099991,0.800018l-7,0.199982l0,-1l0,0z" id="svg_22"/>
     <path fill="#FFFFFF" d="m181.998154,165.117889c1.399994,-0.200012 2,-0.899994 2,-2.100006l0,-16.199982c0,-1.399994 0,-2.200012 -1,-2.200012l-1.300003,0l0,-0.799988c3.699997,-0.799988 5.099991,-1.399994 5.099991,-1.399994l0.100006,0.100006c0,0 -0.300003,1.199982 -0.300003,3.599976l0,17c0,1 -0.199997,1.700012 -0.199997,1.700012l2.699997,0.299988l-0.099991,0.800018l-7,0.199982l0,-1l0,0z" id="svg_23"/>
     <path fill="#FFFFFF" d="m56.798149,174.217896c2.400002,0 5.199997,0.600006 6.900002,0.699982l-1,4.900024l-1.100014,0c0,-3.300018 -2.800003,-4.400024 -5.399986,-4.400024c-4.900009,0 -8.199997,4 -8.199997,9.100006c0,5.800018 4,9.600006 9.199997,9.600006c4,0 6.399986,-2.299988 6.399986,-2.299988l0.400002,0.699982c0,0 -2.400002,3.700012 -8,3.700012c-5.699997,0 -11.100006,-3.899994 -11.100006,-10.800018c0.200012,-6.499969 5,-11.199982 11.900002,-11.199982l0.000015,0z" id="svg_24"/>
     <path fill="#FFFFFF" d="m73.898148,181.117889c4.699997,0 7.099998,3.100006 7.099998,7c0,4 -2.5,8.100006 -7.599998,8.100006c-4.5,0 -7,-3.200012 -7,-7.300018c0,-3.599976 2,-7.799988 7.5,-7.799988zm-0.099998,14.100006c2.699997,0 4.199997,-2.800018 4.199997,-6.200012c0,-3.199982 -1.299995,-6.799988 -4.5,-6.799988c-2.900002,0 -4.199997,3 -4.199997,6.100006c0,3.200012 1.299995,6.899994 4.5,6.899994z" id="svg_25"/>
     <path fill="#FFFFFF" d="m83.298149,195.017914c1.400002,-0.200012 2,-0.899994 2,-2.100006l0,-7.799988c0,-1.399994 0,-2.200012 -1,-2.200012l-1.400002,0l0,-0.899994c3.099998,-0.600006 5.099998,-1.5 5.099998,-1.5l0.099998,0.100006c0,0 -0.299995,1 -0.399986,3.899994c1.199997,-1.700012 3.199997,-3.5 5.800003,-3.5c2,0 3.399994,1.100006 3.399994,3.700012c1.200005,-1.900024 3.300003,-3.700012 5.900002,-3.700012c2.099998,0 3.400002,1.100006 3.400002,4.299988l0,7.5c0,1 -0.199997,1.700012 -0.199997,1.700012l2.699997,0.299988l-0.100014,0.800018l-6.899986,0.199982l0,-0.899994c1.399986,-0.199982 1.800003,-0.899994 1.800003,-2.100006l0,-6.799988c0,-2.399994 -0.700005,-3.100006 -1.900002,-3.100006c-1.399994,0 -4.700005,1.300018 -4.700005,3.200012l0,6.699982c0,1 -0.199997,1.700012 -0.199997,1.700012l2.599998,0.299988l-0.099998,0.800018l-6.699997,0.199982l0,-0.899994c1.399994,-0.199982 1.799995,-0.899994 1.799995,-2.100006l0,-6.799988c0,-2.399994 -0.699997,-3.100037 -1.900002,-3.100037c-1.399994,0 -3.199997,0.899994 -4.599998,2.200012l0,7.699982c0,1 -0.199997,1.700012 -0.199997,1.700012l2.600006,0.299988l-0.100006,0.800018l-6.899994,0.199982l0.099998,-0.799988l0,0l-0.000015,0.000031z" id="svg_26"/>
     <path fill="#FFFFFF" d="m110.298149,195.017914c1.400002,-0.200012 2,-0.899994 2,-2.100006l0,-7.799988c0,-1.399994 0,-2.200012 -1,-2.200012l-1.400002,0l0,-0.899994c3.099998,-0.600006 5.099998,-1.5 5.099998,-1.5l0.099998,0.100006c0,0 -0.299995,1 -0.399986,3.899994c1.199997,-1.700012 3.199997,-3.5 5.799995,-3.5c2,0 3.400002,1.100006 3.400002,3.700012c1.199997,-1.900024 3.300003,-3.700012 5.900002,-3.700012c2.100006,0 3.399994,1.100006 3.399994,4.299988l0,7.5c0,1 -0.199997,1.700012 -0.199997,1.700012l2.700012,0.299988l-0.100006,0.800018l-6.899994,0.199982l0,-0.899994c1.399994,-0.199982 1.799988,-0.899994 1.799988,-2.100006l0,-6.799988c0,-2.399994 -0.699997,-3.100006 -1.899994,-3.100006c-1.400002,0 -4.700005,1.300018 -4.700005,3.200012l0,6.699982c0,1 -0.199997,1.700012 -0.199997,1.700012l2.599998,0.299988l-0.099998,0.800018l-6.700005,0.199982l0,-0.899994c1.400002,-0.199982 1.800003,-0.899994 1.800003,-2.100006l0,-6.799988c0,-2.399994 -0.699997,-3.100037 -1.899994,-3.100037c-1.400002,0 -3.200005,0.899994 -4.600006,2.200012l0,7.699982c0,1 -0.199997,1.700012 -0.199997,1.700012l2.599998,0.299988l-0.100006,0.800018l-6.899994,0.199982l0.099998,-0.799988l0,0l-0.000008,0.000031z" id="svg_27"/>
     <path fill="#FFFFFF" d="m138.798157,185.217896c0,-1.399994 0,-2.200012 -1,-2.200012l-1.100006,0l0,-0.899994c3.100006,-0.5 4.899994,-1.200012 4.899994,-1.200012l0.100006,0.100006c0,0 -0.300003,0.899994 -0.300003,3.399994l0,6.800018c0,2.399994 0.900009,3.100006 2.199997,3.100006c1.5,0 3.300003,-0.900024 4.600006,-2.300018l0,-6.799988c0,-1.399994 0,-2.200012 -1,-2.200012l-1.100006,0l0,-0.899994c3.100006,-0.5 4.800003,-1.200012 4.800003,-1.200012l0.100006,0.100037c0,0 -0.300003,0.899963 -0.300003,3.399963l0,8.400024c0,1.799988 0.699997,1.799988 1.800003,1.799988l0.899994,0l-0.100006,0.899994c-3.5,0.399994 -5.199997,0.600006 -5.199997,0.600006l-0.100006,-0.100006c0,0 0.300018,-0.899994 0.300018,-1.699982l0,-1.700012c-1.100006,1.700012 -3.300018,3.600037 -5.900009,3.600037c-2.199997,0 -3.599991,-1.200012 -3.599991,-4.300049l0,-6.699951l0,0l0,-0.000031z" id="svg_28"/>
     <path fill="#FFFFFF" d="m155.098145,195.017914c1.400009,-0.200012 2,-0.899994 2,-2.100006l0,-7.799988c0,-1.399994 0,-2.200012 -1,-2.200012l-1.399994,0l0,-0.899994c3.099991,-0.600006 5.099991,-1.5 5.099991,-1.5l0.100006,0.100006c0,0 -0.300003,1.100006 -0.300003,3.899994c1.100006,-1.700012 3.400009,-3.5 6.100006,-3.5c2.199997,0 3.599991,1.200012 3.599991,4.299988l0,7.5c0,1 -0.199997,1.700012 -0.199997,1.700012l2.699997,0.299988l-0.099991,0.800018l-6.900009,0.199982l0,-0.899994c1.400009,-0.199982 1.800003,-0.899994 1.800003,-2.100006l0,-6.799988c0,-2.399994 -0.899994,-3.100006 -2.199997,-3.100006c-1.5,0 -3.399994,0.899994 -4.800003,2.200012l0,7.699982c0,1 -0.199997,1.700012 -0.199997,1.700012l2.600006,0.299988l-0.100006,0.800018l-6.899994,0.199982l0.099991,-0.799988l0,0z" id="svg_29"/>
     <path fill="#FFFFFF" d="m173.398148,195.017914c1.399994,-0.200012 2,-0.899994 2,-2.100006l0,-7.799988c0,-1.399994 0,-2.200012 -1,-2.200012l-1.399994,0l0,-0.899994c4.699997,-1.100006 5.299988,-1.5 5.299988,-1.5l0,0.100006c0,0 -0.399994,1.100006 -0.399994,3.600006l0,8.599976c0,1 -0.199997,1.700012 -0.199997,1.700012l2.699997,0.299988l-0.100006,0.800018l-7,0.199982l0.100006,-0.799988l0,0zm1.300003,-18.900024c0,-0.899994 0.800003,-1.700012 1.699997,-1.700012c0.899994,0 1.699997,0.800018 1.699997,1.700012c0,0.899994 -0.800003,1.700012 -1.699997,1.700012c-0.899994,0 -1.699997,-0.799988 -1.699997,-1.700012z" id="svg_30"/>
     <path fill="#FFFFFF" d="m183.798141,185.217896c0,-0.899994 0.100006,-2.100006 0.100006,-2.100006l-2.100006,0l0,-1c0,0 1.400009,-0.299988 2.200012,-1l1.199997,-3.5l1.399994,0l0.100006,0.100006c0,0 -0.300003,0.899994 -0.300003,3.199982l0,0.5l5,0l-0.199997,1.5l-4.400009,0l-0.299988,0.300018l0,8.100006c0,1.899994 0.5,2.899994 2.199997,2.899994c1.399994,0 2.899994,-0.700012 2.899994,-0.700012l0.400009,0.600006c0,0 -1.800003,2 -4.600006,2c-2.300003,0 -3.5,-1.299988 -3.5,-4.200012l-0.100006,-6.699982l0,0z" id="svg_31"/>
     <path fill="#FFFFFF" d="m197.798141,198.417908l1,-2.399994c-0.199997,-0.399994 -0.399994,-1.200012 -0.799988,-2.100006l-4.100006,-9.799988c-0.699997,-1.600006 -1.800003,-1.899994 -1.800003,-1.899994l0,-0.800018l1.5,0c2,0 3.300003,-0.100006 3.300003,-0.100006l0.100006,0.100006c-0.400009,0.800018 -0.400009,2.100006 0,2.899994l2.599991,6.5c0.199997,0.5 0.400009,1.300018 0.600006,1.900024l3.599991,-8.200012c0.5,-1.299988 -0.599991,-2 -1.799988,-2.299988l0,-0.800018l4.399994,0l0.199997,0.5c0,0 -0.599991,0.300018 -1.099991,1.700012l-5.5,12.600006c-0.900009,1.899994 -2.700012,7.199982 -5.800003,7.199982c-0.900009,0 -1.400009,-0.600006 -1.400009,-1.299988c0,-0.600006 0.400009,-1.300018 1.600006,-1.300018c1.699997,0 2.800003,-1.100006 3.399994,-2.399994z" id="svg_32"/>
    </g>
   </g>
   <g id="svg_33">
    <g id="svg_34">
     <path fill="#FFFFFF" stroke="#FFFFFF" stroke-width="1.0134" stroke-miterlimit="10" d="m63.998146,264.217896c3.400002,-0.399994 5.5,-2.200012 5.5,-5l0,-40.899994l-7.599998,0c-5.300003,0 -7.599998,1.599976 -10.5,9.5l-2.600006,0l2.400009,-12.900024c0,0 2,0.5 5.099998,0.5l35.900002,0c3.099998,0 5.5,-0.5 5.5,-0.5l-2.400002,12.900024l-2.599998,0c0.399986,-7.900024 -2.100014,-9.5 -8.100014,-9.5l-7.599998,0l-0.800003,0.799988l0,40.100006c0,2.299988 -0.400002,4.100006 -0.400002,4.100006l7.700005,0.699982l-0.300003,2.100006l-19.199997,0.5l0,-2.399963l0.000008,-0.000031z" id="svg_35"/>
     <path fill="#FFFFFF" stroke="#FFFFFF" stroke-width="1.0134" stroke-miterlimit="10" d="m128.498138,214.417908c16.000015,0 26.200012,10.800018 26.200012,24.700012c0,14.600006 -11.199997,28.299988 -28.099998,28.299988c-15.700005,0 -25.900002,-11.899994 -25.900002,-25.799988c0,-13.800018 9.899986,-27.200012 27.799988,-27.200012zm-0.300003,49.899994c12.000015,0 19.000015,-12.100006 19.000015,-23.299988c0,-11.5 -7.200012,-23.5 -19.900002,-23.5c-12,0 -18.900002,10.799988 -18.900002,22.099976c-0.099998,11.400024 7.099998,24.700012 19.799988,24.700012z" id="svg_36"/>
     <path fill="#FFFFFF" stroke="#FFFFFF" stroke-width="1.0134" stroke-miterlimit="10" d="m170.598145,264.217896c3.400009,-0.399994 5.5,-2.100006 5.5,-4.800018l0,-15.599976l-14.699997,-23.200012c-1.800003,-2.899994 -4.100006,-3.399994 -4.100006,-3.399994l0,-1.899994l3.700012,0c4.799988,0 7.799988,-0.300018 7.799988,-0.300018l0.300003,0.300018c0,0 -1.5,2.899994 0.100006,5.5l9.5,15.299988c0.800003,1.200012 1.599991,3 2.199997,4.299988l11.399994,-18.5c1.200012,-2 0.800003,-4.099976 -3.099991,-4.799988l0,-1.899994l12.699997,0l0.300003,1.100006c0,0 -3,1 -5.300003,4.699982l-14,22.700012l0,15.799988c0,2.200012 -0.399994,3.899994 -0.399994,3.899994l6.899994,0.700012l-0.300003,2.100006l-18.5,0.5l0,-2.5l0,0z" id="svg_37"/>
    </g>
   </g>
   <g id="svg_38">
    <path fill="#FFFFFF" d="m68.998146,298.417877c1.400002,-0.200012 2.300003,-0.900024 2.300003,-2l0,-15.299988c0,-1.5 -0.200005,-1.899994 -2.599998,-2.300018l0,-0.799988l7.899986,0c3.699997,0 7.800003,1.200012 7.800003,5.899994c0,5.100006 -4.800003,6.800018 -8.300003,6.5l0,-0.899994c3.699997,-0.100006 5.100014,-2.399994 5.100014,-4.899994c0,-3.800018 -3,-5.300018 -6.400002,-5.300018l-0.5,0l-0.300003,0.300018l0,16.799988c0,0.900024 -0.199997,1.599976 -0.199997,1.599976l3,0.300049l-0.099998,0.899963l-7.900002,0.200012l0.199997,-1l0,0z" id="svg_39"/>
    <path fill="#FFFFFF" d="m86.498146,298.517914c1.400002,-0.200012 2,-0.900024 2,-2.100006l0,-7.799988c0,-1.399994 0,-2.200012 -1,-2.200012l-1.400002,0l0,-0.899994c3.100014,-0.600006 5.200005,-1.5 5.200005,-1.5l0.099998,0.100006c0,0 -0.300003,1.100006 -0.400002,4.100006c1,-1.800018 2.700005,-3.700012 4.300003,-3.700012c0.799995,0 1.699997,0.399994 1.699997,1.5c0,1 -0.699997,1.600006 -1.5,1.600006c-0.699997,0 -0.799995,-0.5 -1.599998,-0.5c-1.099998,0 -2.099998,1.100037 -2.800003,1.899994l0,7.5c0,1 -0.199997,1.700012 -0.199997,1.700012l3,0.299988l-0.099998,0.799988l-7.400002,0.200012l0.099998,-1l0,0l0,0z" id="svg_40"/>
    <path fill="#FFFFFF" d="m105.798149,284.517914c4.699997,0 7.099998,3.100006 7.099998,7c0,4 -2.5,8.200012 -7.599998,8.200012c-4.5,0 -7,-3.200012 -7,-7.300018c0,-3.700012 2.099998,-7.899994 7.5,-7.899994zm0,14.099976c2.699997,0 4.199997,-2.700012 4.199997,-6.200012c0,-3.199982 -1.299995,-6.799988 -4.5,-6.799988c-2.900002,0 -4.199997,3 -4.199997,6.100006c0,3.200012 1.299995,6.899994 4.5,6.899994z" id="svg_41"/>
    <path fill="#FFFFFF" d="m119.298149,294.417908c-2.100006,-0.600006 -3.800003,-2.100006 -3.800003,-4.699982c0,-3.300018 2.800003,-5.100006 6,-5.100006c1.900002,0 2.599998,0.600006 4.200005,0.600006l1.499992,0c0.999992,0 2.100014,-0.400024 2.100014,-0.400024l-0.300018,2.100006l-1.699989,0c-0.699997,0 -1.100006,-0.100006 -1.100006,-0.100006s1.300003,1.100006 1.300003,3.100006c0,3 -2.899994,4.800049 -6.099998,4.800049c-0.5,0 -1.099998,0 -1.599998,-0.100037c-0.199997,0.299988 -0.800003,0.899994 -0.800003,1.299988c0,0.899994 1.900002,1.100006 4.400002,1.600006c2.699997,0.5 5.599991,1.400024 5.599991,4c0,3.099976 -4.199989,5.400024 -8.099991,5.400024c-2.900002,0 -6,-1.200012 -6,-3.900024c0,-2.5 2.599998,-3.400024 4,-4c-1.5,-0.400024 -2.699997,-1 -2.699997,-2c0,-1.399994 1.899994,-1.999969 3.099998,-2.600006zm0.400002,4.800018c-0.800003,0.5 -2.300003,1.700012 -2.300003,3.5c0,2 1.900002,3 4,3c2.300003,0 4.900002,-1.299988 4.900002,-3.200012c0,-1.599976 -1.900002,-2.299988 -4,-2.700012c-0.800003,-0.299988 -1.800003,-0.400024 -2.599998,-0.599976zm5,-9.300018c0,-2 -1.099998,-4.199982 -3.400002,-4.199982c-2.200005,0 -3.100006,1.899994 -3.100006,4c0,2 0.900002,3.899994 3.300003,3.899994c2.300003,-0.100006 3.200005,-1.900024 3.200005,-3.700012z" id="svg_42"/>
    <path fill="#FFFFFF" d="m130.798157,298.517914c1.399994,-0.200012 2,-0.900024 2,-2.100006l0,-7.799988c0,-1.399994 0,-2.200012 -1,-2.200012l-1.400009,0l0,-0.899994c3.100006,-0.600006 5.199997,-1.5 5.199997,-1.5l0.100006,0.100006c0,0 -0.300003,1.100006 -0.399994,4.100006c1,-1.800018 2.599991,-3.700012 4.299988,-3.700012c0.800003,0 1.700012,0.399994 1.700012,1.5c0,1 -0.700012,1.600006 -1.5,1.600006c-0.700012,0 -0.800018,-0.5 -1.600006,-0.5c-1.100006,0 -2.100006,1.100037 -2.800003,1.899994l0,7.5c0,1 -0.199997,1.700012 -0.199997,1.700012l3,0.299988l-0.100006,0.799988l-7.399994,0.200012l0.100006,-1l0,0z" id="svg_43"/>
    <path fill="#FFFFFF" d="m149.598145,291.317902l1.100006,-0.200012c0,-0.699982 0,-2.5 -0.100006,-3.399994c-0.199997,-1.199982 -0.800003,-2 -2,-2c-2.199997,0 -3.399994,3.100006 -3.399994,3.100006l-1,0l-0.5,-2.399994c0,0 2.299988,-1.800018 5.899994,-1.800018c3,0 3.800003,1.200012 3.800003,4.600037l0,7.399963c0,1 0.100006,1.5 0.899994,1.5c0.900009,0 1.800003,-0.599976 1.800003,-0.599976l0.400009,0.700012c0,0 -1.5,1.699951 -3.400009,1.699951c-1.199997,0 -2.199997,-0.699951 -2.199997,-2.299988l0,-0.799988c0,0 -1.699997,3 -5,3c-2.099991,0 -3.300003,-1.5 -3.300003,-3.200012c-0.199997,-3.199982 3.600006,-4.799988 7,-5.299988zm1,4.600006l0,-3.799988l-1,0.199982c-1.799988,0.300018 -4.399994,1.200012 -4.399994,3.600006c0,1.300018 0.799988,2.000031 1.799988,2.000031c1.300018,-0.100037 2.800003,-1.300049 3.600006,-2.000031z" id="svg_44"/>
    <path fill="#FFFFFF" d="m157.398148,298.517914c1.399994,-0.200012 2,-0.900024 2,-2.100006l0,-7.799988c0,-1.399994 0,-2.200012 -1,-2.200012l-1.399994,0l0,-0.899994c3.099991,-0.600006 5.099991,-1.5 5.099991,-1.5l0.100006,0.100006c0,0 -0.300003,1 -0.400009,3.899994c1.100006,-1.700012 3.200012,-3.5 5.800003,-3.5c2,0 3.400009,1.100006 3.400009,3.700012c1.199997,-1.900024 3.299988,-3.700012 5.899994,-3.700012c2.100006,0 3.399994,1.100006 3.399994,4.299988l0,7.5c0,1 -0.199997,1.700012 -0.199997,1.700012l2.699997,0.299988l-0.099991,0.799988l-6.900009,0.200012l0,-0.899963c1.400009,-0.200012 1.800003,-0.900024 1.800003,-2.100037l0,-6.799988c0,-2.399994 -0.699997,-3.100006 -1.899994,-3.100006c-1.400009,0 -4.699997,1.300018 -4.699997,3.200012l0,6.699982c0,1 -0.200012,1.700012 -0.200012,1.700012l2.600006,0.299988l-0.100006,0.799988l-6.699997,0.200012l0,-0.899963c1.400009,-0.200012 1.800003,-0.900024 1.800003,-2.100037l0,-6.799988c0,-2.399994 -0.699997,-3.100037 -1.899994,-3.100037c-1.400009,0 -3.200012,0.899994 -4.600006,2.200012l0,7.699982c0,1.000031 -0.199997,1.700043 -0.199997,1.700043l2.599991,0.299988l-0.099991,0.799988l-6.900009,0.200012l0,-0.799988l0.100006,0z" id="svg_45"/>
   </g>
   <path fill="#66BE67" d="m194.898148,80.717896c0.600006,-0.800018 1.399994,-1.600006 2,-2.399994c7.199997,-10.400024 11,-21.200012 10.800003,-31.200012c-0.199997,-12.199997 -5.900009,-22.599991 -16.600006,-30c-19.399994,-13.5 -43.299988,-7.099991 -59.299988,15.900009c-6.700012,9.599991 -9.500008,21.899979 -10.600014,33.599991c-6.899994,-15 -17.899994,-30.299988 -28.899994,-38c-23.099998,-16 -47.700005,-13.599991 -61.099998,5.800003c-7.400009,10.699997 -9.199997,22.400009 -5.100006,33.900009c3.400009,9.399994 10.600006,18.199982 21,25.399994c5.799988,4.100006 13.699989,7.299988 22.100006,9.600006l-57.400009,10.399994l4,22.299988l211.899994,-38.199982l-4,-22.300018l-28.799988,5.200012zm-44.5,-34.699982c5.199997,-7.5 11.199997,-12.199997 16.699997,-13.199997c3.600006,-0.700012 7.300003,0.299988 11.100006,3c4.599991,3.199997 6.800003,6.900009 6.899994,11.699997c0.100006,5.100006 -2.300003,11.5 -6.800003,17.899994c-6.099991,8.800018 -22.299988,19 -34.799988,23.700012c-0.600006,-12.700012 -0.600006,-32.300018 6.899994,-43.100006zm-103,14.799988c-1.600006,-4.5 -0.899994,-8.700012 2.399994,-13.399994c2.600006,-3.800018 5.699997,-6 9.299995,-6.600006c5.600014,-1 12.699997,1.299988 20.300003,6.5c10.799995,7.5 21.299995,26.399994 24.899994,37.899994c-13.399994,0.700012 -34.699997,-3.399994 -44.299995,-10c-6.400002,-4.399994 -10.800003,-9.600006 -12.600006,-14.399994l0.000015,0z" id="svg_46"/>
  </g>
  <line fill="none" stroke="#959595" stroke-width="0.9857" stroke-miterlimit="10" x1="16.598148" y1="337.817902" x2="71.398148" y2="337.817902" id="svg_47"/>
  <line fill="none" stroke="#959595" stroke-width="1.0492" stroke-miterlimit="10" x1="169.998148" y1="337.817902" x2="231.998148" y2="337.817902" id="svg_48"/>
 </g>
</svg>