<?xml version="1.0" encoding="UTF-8" standalone="no"?>
<svg width="221px" height="339px" viewBox="0 0 221 339" version="1.1" xmlns="http://www.w3.org/2000/svg" xmlns:xlink="http://www.w3.org/1999/xlink">
    <!-- Generator: Sketch 41.2 (35397) - http://www.bohemiancoding.com/sketch -->
    <title>logo.svg</title>
    <desc>Created with Sketch.</desc>
    <defs>
        <polygon id="path-1" points="215.9 0.097 0 0.097 0 63.04845 0 125.9999 215.9 125.9999 215.9 0.097"></polygon>
    </defs>
    <g id="Page-1" stroke="none" stroke-width="1" fill="none" fill-rule="evenodd">
        <g id="logo.svg">
            <g id="Page-1">
                <polygon id="Fill-1" fill="#D11F27" points="4.8 312.903 220.201 312.903 220.201 117.903 4.8 117.903"></polygon>
                <g id="Group-87" transform="translate(0.000000, 0.903000)">
                    <path d="M62.2,134.2999 C64.6,134.2999 67.4,134.8999 69.1,134.9999 L68.1,139.8999 L67,139.8999 C67,136.5999 64.2,135.4999 61.6,135.4999 C56.7,135.4999 53.4,139.4999 53.4,144.5999 C53.4,150.3999 57.4,154.1999 62.6,154.1999 C66.6,154.1999 69,151.8999 69,151.8999 L69.4,152.5999 C69.4,152.5999 67,156.2999 61.4,156.2999 C55.7,156.2999 50.3,152.3999 50.3,145.4999 C50.5,138.9999 55.3,134.2999 62.2,134.2999" id="Fill-2" fill="#FFFFFF"></path>
                    <path d="M79.9,152.5999 L79.9,148.7999 L78.9,148.9999 C77.1,149.2999 74.5,150.1999 74.5,152.4999 C74.5,153.7999 75.3,154.4999 76.3,154.4999 C77.5,154.4999 79,153.2999 79.9,152.5999 M78.8,147.9999 L79.9,147.7999 C79.9,147.0999 79.9,145.2999 79.8,144.3999 C79.6,143.1999 79,142.3999 77.8,142.3999 C75.6,142.3999 74.4,145.4999 74.4,145.4999 L73.4,145.4999 L72.9,143.0999 C72.9,143.0999 75.2,141.2999 78.8,141.2999 C81.8,141.2999 82.6,142.4999 82.6,145.8999 L82.6,153.2999 C82.6,154.2999 82.7,154.7999 83.5,154.7999 C84.4,154.7999 85.3,154.1999 85.3,154.1999 L85.7,154.8999 C85.7,154.8999 84.2,156.5999 82.3,156.5999 C81.1,156.5999 80.1,155.8999 80.1,154.2999 L80.1,153.4999 C80.1,153.4999 78.4,156.4999 75.1,156.4999 C73,156.4999 71.8,154.9999 71.8,153.2999 C71.6,150.0999 75.4,148.4999 78.8,147.9999" id="Fill-4" fill="#FFFFFF"></path>
                    <path d="M86.6,155.0999 C88,154.8999 88.6,154.1999 88.6,152.9999 L88.6,145.1999 C88.6,143.7999 88.6,142.9999 87.6,142.9999 L86.2,142.9999 L86.2,142.0999 C89.3,141.4999 91.3,140.5999 91.3,140.5999 L91.4,140.6999 C91.4,140.6999 91.1,141.6999 91,144.5999 C92.2,142.8999 94.2,141.0999 96.8,141.0999 C98.8,141.0999 100.2,142.1999 100.2,144.7999 C101.4,142.8999 103.5,141.0999 106.1,141.0999 C108.2,141.0999 109.5,142.1999 109.5,145.3999 L109.5,152.8999 C109.5,153.8999 109.3,154.5999 109.3,154.5999 L112,154.8999 L111.9,155.6999 L105,155.8999 L105,154.9999 C106.4,154.7999 106.8,154.0999 106.8,152.8999 L106.8,146.0999 C106.8,143.6999 106.1,142.9999 104.9,142.9999 C103.5,142.9999 100.2,144.2999 100.2,146.1999 L100.2,152.8999 C100.2,153.8999 100,154.5999 100,154.5999 L102.6,154.8999 L102.5,155.6999 L95.8,155.8999 L95.8,154.9999 C97.2,154.7999 97.6,154.0999 97.6,152.8999 L97.6,146.0999 C97.6,143.6999 96.9,142.9999 95.7,142.9999 C94.3,142.9999 92.5,143.8999 91.1,145.1999 L91.1,152.8999 C91.1,153.8999 90.9,154.5999 90.9,154.5999 L93.5,154.8999 L93.4,155.6999 L86.5,155.8999 L86.6,155.0999 Z" id="Fill-6" fill="#FFFFFF"></path>
                    <path d="M125.5,149.0999 C125.5,145.9999 124.2,143.0999 121.3,143.0999 C120.1,143.0999 118.9,143.6999 117.9,144.3999 L117.9,153.3999 C117.9,154.8999 119.1,155.0999 120.2,155.0999 C123.5,155.0999 125.5,152.7999 125.5,149.0999 L125.5,149.0999 Z M113.6,162.8999 C115,162.0999 115.3,161.3999 115.3,159.8999 L115.3,145.2999 C115.3,143.8999 115.3,143.0999 114.3,143.0999 L113.1,143.0999 L113.1,142.1999 C116.2,141.5999 118.1,140.6999 118.1,140.6999 L118.2,140.7999 C118.2,140.7999 118,141.5999 117.9,143.5999 C118.8,142.4999 120,141.0999 122.5,141.0999 C126.4,141.0999 128.3,144.5999 128.3,148.0999 C128.3,152.1999 125.7,156.2999 120.1,156.2999 C119.2,156.2999 118.6,156.1999 118,156.0999 L118,159.7999 C118,160.7999 117.8,161.5999 117.8,161.5999 L121.2,161.5999 L121.1,162.3999 C121.1,162.3999 116,162.9999 113.7,163.7999 L113.6,162.8999 Z" id="Fill-8" fill="#FFFFFF"></path>
                    <path d="M136.9,155.0999 C140,155.0999 142.1,152.6999 142.1,149.0999 C142.1,145.9999 140.6,143.0999 137.8,143.0999 C136.4,143.0999 135.1,143.7999 134.6,144.2999 L134.6,154.7999 C134.5,154.6999 135.5,155.0999 136.9,155.0999 M131.9,152.6999 L131.9,136.7999 C131.9,135.3999 131.9,134.5999 130.9,134.5999 L129.6,134.5999 L129.6,133.7999 C133.3,132.9999 134.7,132.3999 134.7,132.3999 L134.8,132.4999 C134.8,132.4999 134.5,133.6999 134.5,136.0999 L134.5,141.1999 C134.5,142.6999 134.4,143.2999 134.4,143.5999 C135.3,142.4999 136.5,141.1999 138.9,141.1999 C142.8,141.1999 144.8,144.6999 144.8,148.1999 C144.8,152.1999 142.1,156.3999 136.6,156.3999 C134.9,156.3999 132.8,155.9999 131.7,155.9999 L131.6,155.8999 C131.6,155.8999 131.9,154.4999 131.9,152.6999" id="Fill-10" fill="#FFFFFF"></path>
                    <path d="M149.9,146.8999 L156.6,145.9999 C156.6,145.9999 156.3,142.3999 153.5,142.3999 C151.4,142.3999 150.2,144.4999 149.9,146.8999 M154,141.1999 C156.7,141.1999 159.5,142.9999 159.6,146.4999 C159.6,146.4999 158.8,146.7999 158.1,146.8999 L150.1,148.0999 L149.8,148.4999 C149.9,151.3999 151.4,154.2999 155,154.2999 C157.6,154.2999 159.2,152.7999 159.2,152.7999 L159.6,153.4999 C159.6,153.4999 157.9,156.4999 154.1,156.4999 C149.6,156.4999 147.3,152.8999 147.3,149.1999 C147.3,144.6999 150.2,141.1999 154,141.1999" id="Fill-12" fill="#FFFFFF"></path>
                    <path d="M161.7,155.0999 C163.1,154.8999 163.7,154.1999 163.7,152.9999 L163.7,136.7999 C163.7,135.3999 163.7,134.5999 162.7,134.5999 L161.4,134.5999 L161.4,133.7999 C165.1,132.9999 166.5,132.3999 166.5,132.3999 L166.6,132.4999 C166.6,132.4999 166.3,133.6999 166.3,136.0999 L166.3,153.0999 C166.3,154.0999 166.1,154.7999 166.1,154.7999 L168.8,155.0999 L168.7,155.8999 L161.7,156.0999 L161.7,155.0999 Z" id="Fill-14" fill="#FFFFFF"></path>
                    <path d="M170.2,155.0999 C171.6,154.8999 172.2,154.1999 172.2,152.9999 L172.2,136.7999 C172.2,135.3999 172.2,134.5999 171.2,134.5999 L169.9,134.5999 L169.9,133.7999 C173.6,132.9999 175,132.3999 175,132.3999 L175.1,132.4999 C175.1,132.4999 174.8,133.6999 174.8,136.0999 L174.8,153.0999 C174.8,154.0999 174.6,154.7999 174.6,154.7999 L177.3,155.0999 L177.2,155.8999 L170.2,156.0999 L170.2,155.0999 Z" id="Fill-16" fill="#FFFFFF"></path>
                    <path d="M45,164.2 C47.4,164.2 50.2,164.8 51.9,164.9 L50.9,169.8 L49.8,169.8 C49.8,166.5 47,165.4 44.4,165.4 C39.5,165.4 36.2,169.4 36.2,174.5 C36.2,180.3 40.2,184.1 45.4,184.1 C49.4,184.1 51.8,181.8 51.8,181.8 L52.2,182.5 C52.2,182.5 49.8,186.2 44.2,186.2 C38.5,186.2 33.1,182.3 33.1,175.4 C33.3,168.9 38.1,164.2 45,164.2" id="Fill-18" fill="#FFFFFF"></path>
                    <path d="M62,185.2 C64.7,185.2 66.2,182.4 66.2,179 C66.2,175.8 64.9,172.2 61.7,172.2 C58.8,172.2 57.5,175.2 57.5,178.3 C57.5,181.5 58.8,185.2 62,185.2 M62.1,171.1 C66.8,171.1 69.2,174.2 69.2,178.1 C69.2,182.1 66.7,186.2 61.6,186.2 C57.1,186.2 54.6,183 54.6,178.9 C54.6,175.3 56.6,171.1 62.1,171.1" id="Fill-20" fill="#FFFFFF"></path>
                    <path d="M71.5,184.9999 C72.9,184.7999 73.5,184.0999 73.5,182.8999 L73.5,175.0999 C73.5,173.6999 73.5,172.8999 72.5,172.8999 L71.1,172.8999 L71.1,171.9999 C74.2,171.3999 76.2,170.4999 76.2,170.4999 L76.3,170.5999 C76.3,170.5999 76,171.5999 75.9,174.4999 C77.1,172.7999 79.1,170.9999 81.7,170.9999 C83.7,170.9999 85.1,172.0999 85.1,174.6999 C86.3,172.7999 88.4,170.9999 91,170.9999 C93.1,170.9999 94.4,172.0999 94.4,175.2999 L94.4,182.7999 C94.4,183.7999 94.2,184.4999 94.2,184.4999 L96.9,184.7999 L96.8,185.5999 L89.9,185.7999 L89.9,184.8999 C91.3,184.6999 91.7,183.9999 91.7,182.7999 L91.7,175.9999 C91.7,173.5999 91,172.8999 89.8,172.8999 C88.4,172.8999 85.1,174.1999 85.1,176.0999 L85.1,182.7999 C85.1,183.7999 84.9,184.4999 84.9,184.4999 L87.5,184.7999 L87.4,185.5999 L80.7,185.7999 L80.7,184.8999 C82.1,184.6999 82.5,183.9999 82.5,182.7999 L82.5,175.9999 C82.5,173.5999 81.8,172.8999 80.6,172.8999 C79.2,172.8999 77.4,173.7999 76,175.0999 L76,182.7999 C76,183.7999 75.8,184.4999 75.8,184.4999 L78.4,184.7999 L78.3,185.5999 L71.4,185.7999 L71.5,184.9999 Z" id="Fill-22" fill="#FFFFFF"></path>
                    <path d="M98.5,184.9999 C99.9,184.7999 100.5,184.0999 100.5,182.8999 L100.5,175.0999 C100.5,173.6999 100.5,172.8999 99.5,172.8999 L98.1,172.8999 L98.1,171.9999 C101.2,171.3999 103.2,170.4999 103.2,170.4999 L103.3,170.5999 C103.3,170.5999 103,171.5999 102.9,174.4999 C104.1,172.7999 106.1,170.9999 108.7,170.9999 C110.7,170.9999 112.1,172.0999 112.1,174.6999 C113.3,172.7999 115.4,170.9999 118,170.9999 C120.1,170.9999 121.4,172.0999 121.4,175.2999 L121.4,182.7999 C121.4,183.7999 121.2,184.4999 121.2,184.4999 L123.9,184.7999 L123.8,185.5999 L116.9,185.7999 L116.9,184.8999 C118.3,184.6999 118.7,183.9999 118.7,182.7999 L118.7,175.9999 C118.7,173.5999 118,172.8999 116.8,172.8999 C115.4,172.8999 112.1,174.1999 112.1,176.0999 L112.1,182.7999 C112.1,183.7999 111.9,184.4999 111.9,184.4999 L114.5,184.7999 L114.4,185.5999 L107.7,185.7999 L107.7,184.8999 C109.1,184.6999 109.5,183.9999 109.5,182.7999 L109.5,175.9999 C109.5,173.5999 108.8,172.8999 107.6,172.8999 C106.2,172.8999 104.4,173.7999 103,175.0999 L103,182.7999 C103,183.7999 102.8,184.4999 102.8,184.4999 L105.4,184.7999 L105.3,185.5999 L98.4,185.7999 L98.5,184.9999 Z" id="Fill-24" fill="#FFFFFF"></path>
                    <path d="M127,175.2 C127,173.8 127,173 126,173 L124.9,173 L124.9,172.1 C128,171.6 129.8,170.9 129.8,170.9 L129.9,171 C129.9,171 129.6,171.9 129.6,174.4 L129.6,181.2 C129.6,183.6 130.5,184.3 131.8,184.3 C133.3,184.3 135.1,183.4 136.4,182 L136.4,175.2 C136.4,173.8 136.4,173 135.4,173 L134.3,173 L134.3,172.1 C137.4,171.6 139.1,170.9 139.1,170.9 L139.2,171 C139.2,171 138.9,171.9 138.9,174.4 L138.9,182.8 C138.9,184.6 139.6,184.6 140.7,184.6 L141.6,184.6 L141.5,185.5 C138,185.9 136.3,186.1 136.3,186.1 L136.2,186 C136.2,186 136.5,185.1 136.5,184.3 L136.5,182.6 C135.4,184.3 133.2,186.2 130.6,186.2 C128.4,186.2 127,185 127,181.9 L127,175.2 Z" id="Fill-26" fill="#FFFFFF"></path>
                    <path d="M143.3,184.9999 C144.7,184.7999 145.3,184.0999 145.3,182.8999 L145.3,175.0999 C145.3,173.6999 145.3,172.8999 144.3,172.8999 L142.9,172.8999 L142.9,171.9999 C146,171.3999 148,170.4999 148,170.4999 L148.1,170.5999 C148.1,170.5999 147.8,171.6999 147.8,174.4999 C148.9,172.7999 151.2,170.9999 153.9,170.9999 C156.1,170.9999 157.5,172.1999 157.5,175.2999 L157.5,182.7999 C157.5,183.7999 157.3,184.4999 157.3,184.4999 L160,184.7999 L159.9,185.5999 L153,185.7999 L153,184.8999 C154.4,184.6999 154.8,183.9999 154.8,182.7999 L154.8,175.9999 C154.8,173.5999 153.9,172.8999 152.6,172.8999 C151.1,172.8999 149.2,173.7999 147.8,175.0999 L147.8,182.7999 C147.8,183.7999 147.6,184.4999 147.6,184.4999 L150.2,184.7999 L150.1,185.5999 L143.2,185.7999 L143.3,184.9999 Z" id="Fill-28" fill="#FFFFFF"></path>
                    <path d="M162.9,166.0999 C162.9,165.1999 163.7,164.3999 164.6,164.3999 C165.5,164.3999 166.3,165.1999 166.3,166.0999 C166.3,166.9999 165.5,167.7999 164.6,167.7999 C163.7,167.7999 162.9,166.9999 162.9,166.0999 L162.9,166.0999 Z M161.6,184.9999 C163,184.7999 163.6,184.0999 163.6,182.8999 L163.6,175.0999 C163.6,173.6999 163.6,172.8999 162.6,172.8999 L161.2,172.8999 L161.2,171.9999 C165.9,170.8999 166.5,170.4999 166.5,170.4999 L166.5,170.5999 C166.5,170.5999 166.1,171.6999 166.1,174.1999 L166.1,182.7999 C166.1,183.7999 165.9,184.4999 165.9,184.4999 L168.6,184.7999 L168.5,185.5999 L161.5,185.7999 L161.6,184.9999 Z" id="Fill-30" fill="#FFFFFF"></path>
                    <path d="M172,175.2 C172,174.3 172.1,173.1 172.1,173.1 L170,173.1 L170,172.1 C170,172.1 171.4,171.8 172.2,171.1 L173.4,167.6 L174.8,167.6 L174.9,167.7 C174.9,167.7 174.6,168.6 174.6,170.9 L174.6,171.4 L179.6,171.4 L179.4,172.9 L175,172.9 L174.7,173.2 L174.7,181.3 C174.7,183.2 175.2,184.2 176.9,184.2 C178.3,184.2 179.8,183.5 179.8,183.5 L180.2,184.1 C180.2,184.1 178.4,186.1 175.6,186.1 C173.3,186.1 172.1,184.8 172.1,181.9 L172,175.2 Z" id="Fill-32" fill="#FFFFFF"></path>
                    <path d="M186,188.3999 L187,185.9999 C186.8,185.5999 186.6,184.7999 186.2,183.8999 L182.1,174.0999 C181.4,172.4999 180.3,172.1999 180.3,172.1999 L180.3,171.3999 L181.8,171.3999 C183.8,171.3999 185.1,171.2999 185.1,171.2999 L185.2,171.3999 C184.8,172.1999 184.8,173.4999 185.2,174.2999 L187.8,180.7999 C188,181.2999 188.2,182.0999 188.4,182.6999 L192,174.4999 C192.5,173.1999 191.4,172.4999 190.2,172.1999 L190.2,171.3999 L194.6,171.3999 L194.8,171.8999 C194.8,171.8999 194.2,172.1999 193.7,173.5999 L188.2,186.1999 C187.3,188.0999 185.5,193.3999 182.4,193.3999 C181.5,193.3999 181,192.7999 181,192.0999 C181,191.4999 181.4,190.7999 182.6,190.7999 C184.3,190.7999 185.4,189.6999 186,188.3999" id="Fill-34" fill="#FFFFFF"></path>
                    <path d="M52.2,254.2 C55.6,253.8 57.7,252 57.7,249.2 L57.7,208.3 L50.1,208.3 C44.8,208.3 42.5,209.9 39.6,217.8 L37,217.8 L39.4,204.9 C39.4,204.9 41.4,205.4 44.5,205.4 L80.4,205.4 C83.5,205.4 85.9,204.9 85.9,204.9 L83.5,217.8 L80.9,217.8 C81.3,209.9 78.8,208.3 72.8,208.3 L65.2,208.3 L64.4,209.1 L64.4,249.2 C64.4,251.5 64,253.3 64,253.3 L71.7,254 L71.4,256.1 L52.2,256.6 L52.2,254.2 Z" id="Fill-36" fill="#FFFFFF"></path>
                    <path d="M52.2,254.2 C55.6,253.8 57.7,252 57.7,249.2 L57.7,208.3 L50.1,208.3 C44.8,208.3 42.5,209.9 39.6,217.8 L37,217.8 L39.4,204.9 C39.4,204.9 41.4,205.4 44.5,205.4 L80.4,205.4 C83.5,205.4 85.9,204.9 85.9,204.9 L83.5,217.8 L80.9,217.8 C81.3,209.9 78.8,208.3 72.8,208.3 L65.2,208.3 L64.4,209.1 L64.4,249.2 C64.4,251.5 64,253.3 64,253.3 L71.7,254 L71.4,256.1 L52.2,256.6 L52.2,254.2 Z" id="Stroke-38" stroke="#FFFFFF" stroke-width="1.013"></path>
                    <path d="M116.4,254.2999 C128.4,254.2999 135.4,242.1999 135.4,230.9999 C135.4,219.4999 128.2,207.4999 115.5,207.4999 C103.5,207.4999 96.6,218.2999 96.6,229.5999 C96.5,240.9999 103.7,254.2999 116.4,254.2999 M116.7,204.3999 C132.7,204.3999 142.9,215.1999 142.9,229.0999 C142.9,243.6999 131.7,257.3999 114.8,257.3999 C99.1,257.3999 88.9,245.4999 88.9,231.5999 C88.9,217.7999 98.8,204.3999 116.7,204.3999" id="Fill-40" fill="#FFFFFF"></path>
                    <path d="M116.4,254.2999 C128.4,254.2999 135.4,242.1999 135.4,230.9999 C135.4,219.4999 128.2,207.4999 115.5,207.4999 C103.5,207.4999 96.6,218.2999 96.6,229.5999 C96.5,240.9999 103.7,254.2999 116.4,254.2999 Z M116.7,204.3999 C132.7,204.3999 142.9,215.1999 142.9,229.0999 C142.9,243.6999 131.7,257.3999 114.8,257.3999 C99.1,257.3999 88.9,245.4999 88.9,231.5999 C88.9,217.7999 98.8,204.3999 116.7,204.3999 Z" id="Stroke-42" stroke="#FFFFFF" stroke-width="1.013"></path>
                    <path d="M158.8,254.2 C162.2,253.8 164.3,252.1 164.3,249.4 L164.3,233.8 L149.6,210.6 C147.8,207.7 145.5,207.2 145.5,207.2 L145.5,205.3 L149.2,205.3 C154,205.3 157,205 157,205 L157.3,205.3 C157.3,205.3 155.8,208.2 157.4,210.8 L166.9,226.1 C167.7,227.3 168.5,229.1 169.1,230.4 L180.5,211.9 C181.7,209.9 181.3,207.8 177.4,207.1 L177.4,205.2 L190.1,205.2 L190.4,206.3 C190.4,206.3 187.4,207.3 185.1,211 L171.1,233.7 L171.1,249.5 C171.1,251.7 170.7,253.4 170.7,253.4 L177.6,254.1 L177.3,256.2 L158.8,256.7 L158.8,254.2 Z" id="Fill-44" fill="#FFFFFF"></path>
                    <path d="M158.8,254.2 C162.2,253.8 164.3,252.1 164.3,249.4 L164.3,233.8 L149.6,210.6 C147.8,207.7 145.5,207.2 145.5,207.2 L145.5,205.3 L149.2,205.3 C154,205.3 157,205 157,205 L157.3,205.3 C157.3,205.3 155.8,208.2 157.4,210.8 L166.9,226.1 C167.7,227.3 168.5,229.1 169.1,230.4 L180.5,211.9 C181.7,209.9 181.3,207.8 177.4,207.1 L177.4,205.2 L190.1,205.2 L190.4,206.3 C190.4,206.3 187.4,207.3 185.1,211 L171.1,233.7 L171.1,249.5 C171.1,251.7 170.7,253.4 170.7,253.4 L177.6,254.1 L177.3,256.2 L158.8,256.7 L158.8,254.2 Z" id="Stroke-46" stroke="#FFFFFF" stroke-width="1.013"></path>
                    <path d="M57.2,288.4 C58.6,288.2 59.5,287.5 59.5,286.4 L59.5,271.1 C59.5,269.6 59.3,269.2 56.9,268.8 L56.9,268 L64.8,268 C68.5,268 72.6,269.2 72.6,273.9 C72.6,279 67.8,280.7 64.3,280.4 L64.3,279.5 C68,279.4 69.4,277.1 69.4,274.6 C69.4,270.8 66.4,269.3 63,269.3 L62.5,269.3 L62.2,269.6 L62.2,286.4 C62.2,287.3 62,288 62,288 L65,288.3 L64.9,289.2 L57,289.4 L57.2,288.4 Z" id="Fill-48" fill="#FFFFFF"></path>
                    <path d="M74.7,288.4999 C76.1,288.2999 76.7,287.5999 76.7,286.3999 L76.7,278.5999 C76.7,277.1999 76.7,276.3999 75.7,276.3999 L74.3,276.3999 L74.3,275.4999 C77.4,274.8999 79.5,273.9999 79.5,273.9999 L79.6,274.0999 C79.6,274.0999 79.3,275.1999 79.2,278.1999 C80.2,276.3999 81.9,274.4999 83.5,274.4999 C84.3,274.4999 85.2,274.8999 85.2,275.9999 C85.2,276.9999 84.5,277.5999 83.7,277.5999 C83,277.5999 82.9,277.0999 82.1,277.0999 C81,277.0999 80,278.1999 79.3,278.9999 L79.3,286.4999 C79.3,287.4999 79.1,288.1999 79.1,288.1999 L82.1,288.4999 L82,289.2999 L74.6,289.4999 L74.7,288.4999 Z" id="Fill-50" fill="#FFFFFF"></path>
                    <path d="M94,288.5999 C96.7,288.5999 98.2,285.8999 98.2,282.3999 C98.2,279.1999 96.9,275.5999 93.7,275.5999 C90.8,275.5999 89.5,278.5999 89.5,281.6999 C89.5,284.8999 90.8,288.5999 94,288.5999 M94,274.4999 C98.7,274.4999 101.1,277.5999 101.1,281.4999 C101.1,285.4999 98.6,289.6999 93.5,289.6999 C89,289.6999 86.5,286.4999 86.5,282.3999 C86.5,278.6999 88.6,274.4999 94,274.4999" id="Fill-52" fill="#FFFFFF"></path>
                    <path d="M112.9,279.8999 C112.9,277.8999 111.8,275.6999 109.5,275.6999 C107.3,275.6999 106.4,277.5999 106.4,279.6999 C106.4,281.6999 107.3,283.5999 109.7,283.5999 C112,283.4999 112.9,281.6999 112.9,279.8999 M107.9,289.1999 C107.1,289.6999 105.6,290.8999 105.6,292.6999 C105.6,294.6999 107.5,295.6999 109.6,295.6999 C111.9,295.6999 114.5,294.3999 114.5,292.4999 C114.5,290.8999 112.6,290.1999 110.5,289.7999 C109.7,289.4999 108.7,289.3999 107.9,289.1999 M107.5,284.3999 C105.4,283.7999 103.7,282.2999 103.7,279.6999 C103.7,276.3999 106.5,274.5999 109.7,274.5999 C111.6,274.5999 112.3,275.1999 113.9,275.1999 L115.4,275.1999 C116.4,275.1999 117.5,274.7999 117.5,274.7999 L117.2,276.8999 L115.5,276.8999 C114.8,276.8999 114.4,276.7999 114.4,276.7999 C114.4,276.7999 115.7,277.8999 115.7,279.8999 C115.7,282.8999 112.8,284.6999 109.6,284.6999 C109.1,284.6999 108.5,284.6999 108,284.5999 C107.8,284.8999 107.2,285.4999 107.2,285.8999 C107.2,286.7999 109.1,286.9999 111.6,287.4999 C114.3,287.9999 117.2,288.8999 117.2,291.4999 C117.2,294.5999 113,296.8999 109.1,296.8999 C106.2,296.8999 103.1,295.6999 103.1,292.9999 C103.1,290.4999 105.7,289.5999 107.1,288.9999 C105.6,288.5999 104.4,287.9999 104.4,286.9999 C104.4,285.5999 106.3,284.9999 107.5,284.3999" id="Fill-54" fill="#FFFFFF"></path>
                    <path d="M119,288.4999 C120.4,288.2999 121,287.5999 121,286.3999 L121,278.5999 C121,277.1999 121,276.3999 120,276.3999 L118.6,276.3999 L118.6,275.4999 C121.7,274.8999 123.8,273.9999 123.8,273.9999 L123.9,274.0999 C123.9,274.0999 123.6,275.1999 123.5,278.1999 C124.5,276.3999 126.1,274.4999 127.8,274.4999 C128.6,274.4999 129.5,274.8999 129.5,275.9999 C129.5,276.9999 128.8,277.5999 128,277.5999 C127.3,277.5999 127.2,277.0999 126.4,277.0999 C125.3,277.0999 124.3,278.1999 123.6,278.9999 L123.6,286.4999 C123.6,287.4999 123.4,288.1999 123.4,288.1999 L126.4,288.4999 L126.3,289.2999 L118.9,289.4999 L119,288.4999 Z" id="Fill-56" fill="#FFFFFF"></path>
                    <path d="M138.8,285.9 L138.8,282.1 L137.8,282.3 C136,282.6 133.4,283.5 133.4,285.9 C133.4,287.2 134.2,287.9 135.2,287.9 C136.5,287.8 138,286.6 138.8,285.9 M137.8,281.3 L138.9,281.1 C138.9,280.4 138.9,278.6 138.8,277.7 C138.6,276.5 138,275.7 136.8,275.7 C134.6,275.7 133.4,278.8 133.4,278.8 L132.4,278.8 L131.9,276.4 C131.9,276.4 134.2,274.6 137.8,274.6 C140.8,274.6 141.6,275.8 141.6,279.2 L141.6,286.6 C141.6,287.6 141.7,288.1 142.5,288.1 C143.4,288.1 144.3,287.5 144.3,287.5 L144.7,288.2 C144.7,288.2 143.2,289.9 141.3,289.9 C140.1,289.9 139.1,289.2 139.1,287.6 L139.1,286.8 C139.1,286.8 137.4,289.8 134.1,289.8 C132,289.8 130.8,288.3 130.8,286.6 C130.6,283.4 134.4,281.8 137.8,281.3" id="Fill-58" fill="#FFFFFF"></path>
                    <path d="M145.6,288.4999 C147,288.2999 147.6,287.5999 147.6,286.3999 L147.6,278.5999 C147.6,277.1999 147.6,276.3999 146.6,276.3999 L145.2,276.3999 L145.2,275.4999 C148.3,274.8999 150.3,273.9999 150.3,273.9999 L150.4,274.0999 C150.4,274.0999 150.1,275.0999 150,277.9999 C151.1,276.2999 153.2,274.4999 155.8,274.4999 C157.8,274.4999 159.2,275.5999 159.2,278.1999 C160.4,276.2999 162.5,274.4999 165.1,274.4999 C167.2,274.4999 168.5,275.5999 168.5,278.7999 L168.5,286.2999 C168.5,287.2999 168.3,287.9999 168.3,287.9999 L171,288.2999 L170.9,289.0999 L164,289.2999 L164,288.3999 C165.4,288.1999 165.8,287.4999 165.8,286.2999 L165.8,279.4999 C165.8,277.0999 165.1,276.3999 163.9,276.3999 C162.5,276.3999 159.2,277.6999 159.2,279.5999 L159.2,286.2999 C159.2,287.2999 159,287.9999 159,287.9999 L161.6,288.2999 L161.5,289.0999 L154.8,289.2999 L154.8,288.3999 C156.2,288.1999 156.6,287.4999 156.6,286.2999 L156.6,279.4999 C156.6,277.0999 155.9,276.3999 154.7,276.3999 C153.3,276.3999 151.5,277.2999 150.1,278.5999 L150.1,286.2999 C150.1,287.2999 149.9,287.9999 149.9,287.9999 L152.5,288.2999 L152.4,289.0999 L145.5,289.2999 L145.6,288.4999 Z" id="Fill-60" fill="#FFFFFF"></path>
                    <g id="Group-64">
                        <mask id="mask-2" fill="white">
                            <use xlink:href="#path-1"></use>
                        </mask>
                        <g id="Clip-63"></g>
                        <path d="M35.6,50.7999 C34,46.2999 34.7,42.0999 38,37.3999 C40.6,33.5999 43.7,31.3999 47.3,30.7999 C52.9,29.7999 60,32.0999 67.6,37.2999 C78.4,44.7999 88.9,63.6999 92.5,75.1999 C79.1,75.8999 57.8,71.7999 48.2,65.1999 C41.8,60.7999 37.4,55.5999 35.6,50.7999 L35.6,50.7999 Z M138.6,35.9999 C143.8,28.4999 149.8,23.7999 155.3,22.7999 C158.9,22.0999 162.6,23.0999 166.4,25.7999 C171,28.9999 173.2,32.6999 173.3,37.4999 C173.4,42.5999 171,48.9999 166.5,55.3999 C160.4,64.1999 144.2,74.3999 131.7,79.0999 C131.1,66.3999 131.1,46.7999 138.6,35.9999 L138.6,35.9999 Z M183.1,70.6999 C183.7,69.8999 184.5,69.0999 185.1,68.2999 C192.3,57.8999 196.1,47.0999 195.9,37.0999 C195.7,24.8999 190,14.4999 179.3,7.0999 C159.9,-6.4001 136,-0.0001 120,22.9999 C113.3,32.5999 110.5,44.8999 109.4,56.5999 C102.5,41.5999 91.5,26.2999 80.5,18.5999 C57.4,2.5999 32.8,4.9999 19.4,24.3999 C12,35.0999 10.2,46.7999 14.3,58.2999 C17.7,67.6999 24.9,76.4999 35.3,83.6999 C41.1,87.7999 49,90.9999 57.4,93.2999 L0,103.6999 L4,125.9999 L215.9,87.7999 L211.9,65.4999 L183.1,70.6999 Z" id="Fill-62" fill="#66BE67" mask="url(#mask-2)"></path>
                    </g>
                    <path d="M4.8,327.7999 L56.9,327.7999" id="Stroke-65" stroke="#959595" stroke-width="0.961"></path>
                    <path d="M162.9,327.7999 L220.2,327.7999" id="Stroke-67" stroke="#959595" stroke-width="1.009"></path>
                    <path d="M62.9,329.5999 L63.7,329.5999 C63.7,332.2999 65.4,332.9999 66.9,332.9999 C68.3,332.9999 69.7,332.3999 69.7,330.6999 C69.7,326.7999 62.7,326.8999 62.7,322.3999 C62.7,320.1999 64.4,318.4999 67.7,318.4999 C69.3,318.4999 70.9,318.8999 71.4,318.8999 L70.7,322.3999 L69.9,322.3999 C70.1,320.6999 69.3,319.3999 67.4,319.3999 C65.9,319.3999 64.6,320.0999 64.6,321.6999 C64.6,325.5999 71.6,325.1999 71.6,329.9999 C71.6,332.6999 69.3,333.8999 66.6,333.8999 C64.7,333.8999 62.3,333.1999 62.3,331.5999 C62.4,331.2999 62.5,330.9999 62.9,329.5999" id="Fill-69" fill="#969696"></path>
                    <path d="M74.2,319.9 C74.2,319.3 74.8,318.7 75.4,318.7 C76,318.7 76.6,319.3 76.6,319.9 C76.6,320.5 76,321.1 75.4,321.1 C74.8,321.1 74.2,320.5 74.2,319.9 M73.3,333.1 C74.3,333 74.7,332.5 74.7,331.7 L74.7,326.3 C74.7,325.3 74.7,324.8 74,324.8 L73,324.8 L73,324.2 C76.3,323.4 76.7,323.2 76.7,323.2 L76.7,323.3 C76.7,323.3 76.5,324 76.5,325.8 L76.5,331.8 C76.5,332.5 76.4,333 76.4,333 L78.3,333.2 L78.2,333.8 L73.3,333.9 L73.3,333.1" id="Fill-71" fill="#969696"></path>
                    <path d="M79.5,333.0999 C80.5,332.9999 80.9,332.4999 80.9,331.6999 L80.9,326.2999 C80.9,325.2999 80.9,324.7999 80.2,324.7999 L79.2,324.7999 L79.2,324.1999 C81.4,323.7999 82.8,323.1999 82.8,323.1999 L82.9,323.2999 C82.9,323.2999 82.7,323.9999 82.7,325.9999 C83.5,324.7999 85.1,323.4999 86.9,323.4999 C88.4,323.4999 89.4,324.2999 89.4,326.4999 L89.4,331.7999 C89.4,332.4999 89.3,332.9999 89.3,332.9999 L91.2,333.1999 L91.1,333.7999 L86.3,333.8999 L86.3,333.2999 C87.3,333.1999 87.6,332.6999 87.6,331.8999 L87.6,327.0999 C87.6,325.3999 87,324.9999 86.1,324.9999 C85.1,324.9999 83.7,325.5999 82.8,326.5999 L82.8,331.8999 C82.8,332.5999 82.7,333.0999 82.7,333.0999 L84.5,333.2999 L84.4,333.8999 L79.6,333.9999 L79.6,333.0999 L79.5,333.0999 Z" id="Fill-73" fill="#969696"></path>
                    <path d="M97,323.4 C98.4,323.4 100.5,323.9 100.5,325.1 C100.5,325.5 100.2,325.9 99.7,325.9 C98.6,325.9 98.4,324.2 96.9,324.2 C95.1,324.2 94.1,326.1 94.1,328.3 C94.1,330.4 95.1,332.5 97.8,332.5 C99.5,332.5 100.4,331.6 100.4,331.6 L100.6,332.1 C100.6,332.1 99.6,334 97,334 C93.9,334 92.3,331.5 92.3,328.9 C92.2,326.1 93.9,323.4 97,323.4" id="Fill-75" fill="#969696"></path>
                    <path d="M103.9,327.2999 L108.6,326.6999 C108.6,326.6999 108.4,324.1999 106.5,324.1999 C104.9,324.1999 104.1,325.6999 103.9,327.2999 M106.7,323.3999 C108.6,323.3999 110.5,324.5999 110.6,327.0999 C110.6,327.0999 110,327.2999 109.6,327.3999 L104.1,328.1999 L103.9,328.4999 C104,330.4999 105,332.4999 107.5,332.4999 C109.3,332.4999 110.4,331.3999 110.4,331.3999 L110.6,331.8999 C110.6,331.8999 109.4,333.9999 106.8,333.9999 C103.6,333.9999 102.1,331.4999 102.1,328.8999 C102,325.7999 104.1,323.3999 106.7,323.3999" id="Fill-77" fill="#969696"></path>
                    <path d="M117.7,332.9999 C119.1,332.9999 119.6,332.5999 119.6,331.5999 L119.6,325.2999 C119.6,324.2999 119.2,323.9999 117.6,323.9999 L117.6,323.1999 L123.4,323.1999 L123.3,323.8999 L121.3,324.0999 L121.3,331.4999 C121.3,332.1999 121.2,332.6999 121.2,332.6999 L123.5,332.8999 L123.4,333.5999 L117.7,333.6999 L117.7,332.9999 Z" id="Fill-79" fill="#969696"></path>
                    <path d="M133,329.4999 C133,326.4999 131.8,323.5999 130,323.5999 C128.6,323.5999 127.7,325.4999 127.7,327.2999 C127.7,329.3999 128.7,332.1999 131.3,331.1999 L131.5,331.8999 C130.9,332.2999 130.2,332.4999 129.4,332.4999 C126.9,332.4999 125.7,330.3999 125.7,327.9999 C125.7,325.4999 127.3,322.8999 130.2,322.8999 C133.4,322.8999 134.9,325.8999 134.9,329.2999 C134.9,333.5999 132.3,337.9999 127,337.9999 L126.9,337.1999 C131.3,336.8999 133,333.0999 133,329.4999" id="Fill-81" fill="#969696"></path>
                    <path d="M142.2,324.9 C143.2,324.1 143.9,323.1 143.9,321.8 C143.9,320.2 142.9,319.3 141.9,319.3 C140.9,319.3 139.7,320.1 139.7,321.4 C139.7,322.8 140.9,323.8 142.2,324.9 M141.8,333.1 C143,333.1 144.5,332.2 144.5,330.6 C144.5,328.9 142.8,327.6 141.1,326.3 C140,327.1 139.2,328.2 139.2,329.9 C139.2,332 140.4,333.1 141.8,333.1 M140.5,325.8 C139.1,324.7 137.9,323.4 137.9,321.9 C137.9,320 139.6,318.5 142.1,318.5 C144.3,318.5 145.8,319.7 145.8,321.6 C145.8,323.5 144.2,324.5 142.9,325.4 C144.6,326.7 146.3,328.1 146.3,330 C146.3,332 144.3,333.9 141.7,333.9 C139.7,333.9 137.4,332.8 137.4,330.2 C137.4,328 138.9,326.8 140.5,325.8" id="Fill-83" fill="#969696"></path>
                    <path d="M153.9,331.5999 L153.9,327.0999 C153.9,326.6999 153.9,326.0999 154,325.6999 L149.6,331.5999 L153.9,331.5999 Z M147.9,332.1999 L154.6,323.1999 L155.8,322.7999 L155.8,322.8999 C155.8,322.8999 155.6,323.6999 155.6,325.2999 L155.6,331.4999 L158,331.4999 L157.7,332.7999 L155.5,332.7999 L155.5,336.4999 C155.5,337.3999 155.4,337.6999 155.4,337.6999 L153.7,337.8999 L153.6,337.7999 C153.6,337.7999 153.7,337.3999 153.7,336.5999 L153.7,332.7999 L147.9,332.7999 L147.9,332.1999 Z" id="Fill-85" fill="#969696"></path>
                </g>
            </g>
        </g>
    </g>
</svg>