<?xml version="1.0" encoding="utf-8"?>
<!-- Generator: Adobe Illustrator 19.1.0, SVG Export Plug-In . SVG Version: 6.00 Build 0)  -->
<!DOCTYPE svg PUBLIC "-//W3C//DTD SVG 1.1//EN" "http://www.w3.org/Graphics/SVG/1.1/DTD/svg11.dtd">
<svg version="1.1" id="Layer_1" xmlns:svg="http://www.w3.org/2000/svg"
	 xmlns="http://www.w3.org/2000/svg" xmlns:xlink="http://www.w3.org/1999/xlink" x="0px" y="0px" width="246px" height="355px"
	 viewBox="-182 219 246 355" style="enable-background:new -182 219 246 355;" xml:space="preserve">
<style type="text/css">
	.st0{fill:#D12027;}
	.st1{fill:#FFFFFF;}
	.st2{fill:#FFFFFF;stroke:#FFFFFF;stroke-width:1.0134;stroke-miterlimit:10;}
	.st3{fill:#66BE67;}
	.st4{fill:none;stroke:#959595;stroke-width:0.9611;stroke-miterlimit:10;}
	.st5{fill:none;stroke:#959595;stroke-width:1.0086;stroke-miterlimit:10;}
	.st6{fill:#969696;}
</style>
<g>
	<title>Layer 1</title>
	<g id="svg_12">
		<rect id="svg_13" x="-165.4" y="346" class="st0" width="215.4" height="195"/>
		<g id="svg_14">
			<g id="svg_15">
				<path id="svg_16" class="st1" d="M-108,363.3c2.4,0,5.2,0.6,6.9,0.7l-1,4.9h-1.1c0-3.3-2.8-4.4-5.4-4.4c-4.9,0-8.2,4-8.2,9.1
					c0,5.8,4,9.6,9.2,9.6c4,0,6.4-2.3,6.4-2.3l0.4,0.7c0,0-2.4,3.7-8,3.7c-5.7,0-11.1-3.9-11.1-10.8
					C-119.7,368-114.9,363.3-108,363.3L-108,363.3z"/>
				<path id="svg_17" class="st1" d="M-91.4,377l1.1-0.2c0-0.7,0-2.5-0.1-3.4c-0.2-1.2-0.8-2-2-2c-2.2,0-3.4,3.1-3.4,3.1h-1
					l-0.5-2.4c0,0,2.3-1.8,5.9-1.8c3,0,3.8,1.2,3.8,4.6v7.4c0,1,0.1,1.5,0.9,1.5c0.9,0,1.8-0.6,1.8-0.6l0.4,0.7c0,0-1.5,1.7-3.4,1.7
					c-1.2,0-2.2-0.7-2.2-2.3v-0.8c0,0-1.7,3-5,3c-2.1,0-3.3-1.5-3.3-3.2C-98.6,379.1-94.8,377.5-91.4,377z M-90.3,381.6v-3.8l-1,0.2
					c-1.8,0.3-4.4,1.2-4.4,3.5c0,1.3,0.8,2,1.8,2C-92.7,383.5-91.2,382.3-90.3,381.6L-90.3,381.6z"/>
				<path id="svg_18" class="st1" d="M-83.6,384.1c1.4-0.2,2-0.9,2-2.1v-7.8c0-1.4,0-2.2-1-2.2H-84v-0.9c3.1-0.6,5.1-1.5,5.1-1.5
					l0.1,0.1c0,0-0.3,1-0.4,3.9c1.2-1.7,3.2-3.5,5.8-3.5c2,0,3.4,1.1,3.4,3.7c1.2-1.9,3.3-3.7,5.9-3.7c2.1,0,3.4,1.1,3.4,4.3v7.5
					c0,1-0.2,1.7-0.2,1.7l2.7,0.3l-0.1,0.8l-6.9,0.2V384c1.4-0.2,1.8-0.9,1.8-2.1v-6.8c0-2.4-0.7-3.1-1.9-3.1
					c-1.4,0-4.7,1.3-4.7,3.2v6.7c0,1-0.2,1.7-0.2,1.7l2.6,0.3l-0.1,0.8l-6.7,0.2V384c1.4-0.2,1.8-0.9,1.8-2.1v-6.8
					c0-2.4-0.7-3.1-1.9-3.1c-1.4,0-3.2,0.9-4.6,2.2v7.7c0,1-0.2,1.7-0.2,1.7l2.6,0.3l-0.1,0.8l-6.9,0.2L-83.6,384.1L-83.6,384.1
					L-83.6,384.1z"/>
				<path id="svg_19" class="st1" d="M-56.6,391.9c1.4-0.8,1.7-1.5,1.7-3v-14.6c0-1.4,0-2.2-1-2.2h-1.2v-0.9c3.1-0.6,5-1.5,5-1.5
					l0.1,0.1c0,0-0.2,0.8-0.3,2.8c0.9-1.1,2.1-2.5,4.6-2.5c3.9,0,5.8,3.5,5.8,7c0,4.1-2.6,8.2-8.2,8.2c-0.9,0-1.5-0.1-2.1-0.2v3.7
					c0,1-0.2,1.8-0.2,1.8h3.4l-0.1,0.8c0,0-5.1,0.6-7.4,1.4L-56.6,391.9L-56.6,391.9z M-44.7,378.1c0-3.1-1.3-6-4.2-6
					c-1.2,0-2.4,0.6-3.4,1.3v9c0,1.5,1.2,1.7,2.3,1.7C-46.7,384.1-44.7,381.8-44.7,378.1z"/>
				<path id="svg_20" class="st1" d="M-38.3,381.7v-15.9c0-1.4,0-2.2-1-2.2h-1.3v-0.8c3.7-0.8,5.1-1.4,5.1-1.4l0.1,0.1
					c0,0-0.3,1.2-0.3,3.6v5.1c0,1.5-0.1,2.1-0.1,2.4c0.9-1.1,2.1-2.4,4.5-2.4c3.9,0,5.9,3.5,5.9,7c0,4-2.7,8.2-8.2,8.2
					c-1.7,0-3.8-0.4-4.9-0.4l-0.1-0.1C-38.6,384.9-38.3,383.5-38.3,381.7L-38.3,381.7z M-33.3,384.1c3.1,0,5.2-2.4,5.2-6
					c0-3.1-1.5-6-4.3-6c-1.4,0-2.7,0.7-3.2,1.2v10.5C-35.7,383.7-34.7,384.1-33.3,384.1z"/>
				<path id="svg_21" class="st1" d="M-16.2,370.2c2.7,0,5.5,1.8,5.6,5.3c0,0-0.8,0.3-1.5,0.4l-8,1.2l-0.3,0.4
					c0.1,2.9,1.6,5.8,5.2,5.8c2.6,0,4.2-1.5,4.2-1.5l0.4,0.7c0,0-1.7,3-5.5,3c-4.5,0-6.8-3.6-6.8-7.3
					C-22.9,373.7-20,370.2-16.2,370.2z M-20.3,375.9l6.7-0.9c0,0-0.3-3.6-3.1-3.6C-18.8,371.4-20,373.5-20.3,375.9z"/>
				<path id="svg_22" class="st1" d="M-8.5,384.1c1.4-0.2,2-0.9,2-2.1v-16.2c0-1.4,0-2.2-1-2.2h-1.3v-0.8c3.7-0.8,5.1-1.4,5.1-1.4
					l0.1,0.1c0,0-0.3,1.2-0.3,3.6v17c0,1-0.2,1.7-0.2,1.7l2.7,0.3l-0.1,0.8l-7,0.2V384.1L-8.5,384.1z"/>
				<path id="svg_23" class="st1" d="M0,384.1c1.4-0.2,2-0.9,2-2.1v-16.2c0-1.4,0-2.2-1-2.2h-1.3v-0.8c3.7-0.8,5.1-1.4,5.1-1.4
					l0.1,0.1c0,0-0.3,1.2-0.3,3.6v17c0,1-0.2,1.7-0.2,1.7l2.7,0.3L7,384.9l-7,0.2V384.1L0,384.1z"/>
				<path id="svg_24" class="st1" d="M-125.2,393.2c2.4,0,5.2,0.6,6.9,0.7l-1,4.9h-1.1c0-3.3-2.8-4.4-5.4-4.4c-4.9,0-8.2,4-8.2,9.1
					c0,5.8,4,9.6,9.2,9.6c4,0,6.4-2.3,6.4-2.3l0.4,0.7c0,0-2.4,3.7-8,3.7c-5.7,0-11.1-3.9-11.1-10.8
					C-136.9,397.9-132.1,393.2-125.2,393.2L-125.2,393.2z"/>
				<path id="svg_25" class="st1" d="M-108.1,400.1c4.7,0,7.1,3.1,7.1,7c0,4-2.5,8.1-7.6,8.1c-4.5,0-7-3.2-7-7.3
					C-115.6,404.3-113.6,400.1-108.1,400.1z M-108.2,414.2c2.7,0,4.2-2.8,4.2-6.2c0-3.2-1.3-6.8-4.5-6.8c-2.9,0-4.2,3-4.2,6.1
					C-112.7,410.5-111.4,414.2-108.2,414.2z"/>
				<path id="svg_26" class="st1" d="M-98.7,414c1.4-0.2,2-0.9,2-2.1v-7.8c0-1.4,0-2.2-1-2.2h-1.4V401c3.1-0.6,5.1-1.5,5.1-1.5
					l0.1,0.1c0,0-0.3,1-0.4,3.9c1.2-1.7,3.2-3.5,5.8-3.5c2,0,3.4,1.1,3.4,3.7c1.2-1.9,3.3-3.7,5.9-3.7c2.1,0,3.4,1.1,3.4,4.3v7.5
					c0,1-0.2,1.7-0.2,1.7l2.7,0.3l-0.1,0.8l-6.9,0.2v-0.9c1.4-0.2,1.8-0.9,1.8-2.1V405c0-2.4-0.7-3.1-1.9-3.1
					c-1.4,0-4.7,1.3-4.7,3.2v6.7c0,1-0.2,1.7-0.2,1.7l2.6,0.3l-0.1,0.8l-6.7,0.2v-0.9c1.4-0.2,1.8-0.9,1.8-2.1V405
					c0-2.4-0.7-3.1-1.9-3.1c-1.4,0-3.2,0.9-4.6,2.2v7.7c0,1-0.2,1.7-0.2,1.7l2.6,0.3l-0.1,0.8l-6.9,0.2L-98.7,414L-98.7,414
					L-98.7,414z"/>
				<path id="svg_27" class="st1" d="M-71.7,414c1.4-0.2,2-0.9,2-2.1v-7.8c0-1.4,0-2.2-1-2.2h-1.4V401c3.1-0.6,5.1-1.5,5.1-1.5
					l0.1,0.1c0,0-0.3,1-0.4,3.9c1.2-1.7,3.2-3.5,5.8-3.5c2,0,3.4,1.1,3.4,3.7c1.2-1.9,3.3-3.7,5.9-3.7c2.1,0,3.4,1.1,3.4,4.3v7.5
					c0,1-0.2,1.7-0.2,1.7l2.7,0.3l-0.1,0.8l-6.9,0.2v-0.9c1.4-0.2,1.8-0.9,1.8-2.1V405c0-2.4-0.7-3.1-1.9-3.1
					c-1.4,0-4.7,1.3-4.7,3.2v6.7c0,1-0.2,1.7-0.2,1.7l2.6,0.3l-0.1,0.8l-6.7,0.2v-0.9c1.4-0.2,1.8-0.9,1.8-2.1V405
					c0-2.4-0.7-3.1-1.9-3.1c-1.4,0-3.2,0.9-4.6,2.2v7.7c0,1-0.2,1.7-0.2,1.7l2.6,0.3l-0.1,0.8l-6.9,0.2L-71.7,414L-71.7,414
					L-71.7,414z"/>
				<path id="svg_28" class="st1" d="M-43.2,404.2c0-1.4,0-2.2-1-2.2h-1.1v-0.9c3.1-0.5,4.9-1.2,4.9-1.2l0.1,0.1
					c0,0-0.3,0.9-0.3,3.4v6.8c0,2.4,0.9,3.1,2.2,3.1c1.5,0,3.3-0.9,4.6-2.3v-6.8c0-1.4,0-2.2-1-2.2h-1.1v-0.9
					c3.1-0.5,4.8-1.2,4.8-1.2l0.1,0.1c0,0-0.3,0.9-0.3,3.4v8.4c0,1.8,0.7,1.8,1.8,1.8h0.9l-0.1,0.9c-3.5,0.4-5.2,0.6-5.2,0.6
					L-34,415c0,0,0.3-0.9,0.3-1.7v-1.7c-1.1,1.7-3.3,3.6-5.9,3.6c-2.2,0-3.6-1.2-3.6-4.3V404.2L-43.2,404.2L-43.2,404.2z"/>
				<path id="svg_29" class="st1" d="M-26.9,414c1.4-0.2,2-0.9,2-2.1v-7.8c0-1.4,0-2.2-1-2.2h-1.4V401c3.1-0.6,5.1-1.5,5.1-1.5
					l0.1,0.1c0,0-0.3,1.1-0.3,3.9c1.1-1.7,3.4-3.5,6.1-3.5c2.2,0,3.6,1.2,3.6,4.3v7.5c0,1-0.2,1.7-0.2,1.7l2.7,0.3l-0.1,0.8
					l-6.9,0.2v-0.9c1.4-0.2,1.8-0.9,1.8-2.1V405c0-2.4-0.9-3.1-2.2-3.1c-1.5,0-3.4,0.9-4.8,2.2v7.7c0,1-0.2,1.7-0.2,1.7l2.6,0.3
					l-0.1,0.8l-6.9,0.2L-26.9,414L-26.9,414z"/>
				<path id="svg_30" class="st1" d="M-8.6,414c1.4-0.2,2-0.9,2-2.1v-7.8c0-1.4,0-2.2-1-2.2H-9V401c4.7-1.1,5.3-1.5,5.3-1.5v0.1
					c0,0-0.4,1.1-0.4,3.6v8.6c0,1-0.2,1.7-0.2,1.7l2.7,0.3l-0.1,0.8l-7,0.2L-8.6,414L-8.6,414z M-7.3,395.1c0-0.9,0.8-1.7,1.7-1.7
					s1.7,0.8,1.7,1.7s-0.8,1.7-1.7,1.7S-7.3,396-7.3,395.1z"/>
				<path id="svg_31" class="st1" d="M1.8,404.2c0-0.9,0.1-2.1,0.1-2.1h-2.1v-1c0,0,1.4-0.3,2.2-1l1.2-3.5h1.4l0.1,0.1
					c0,0-0.3,0.9-0.3,3.2v0.5h5l-0.2,1.5H4.8l-0.3,0.3v8.1c0,1.9,0.5,2.9,2.2,2.9c1.4,0,2.9-0.7,2.9-0.7l0.4,0.6c0,0-1.8,2-4.6,2
					c-2.3,0-3.5-1.3-3.5-4.2L1.8,404.2L1.8,404.2z"/>
				<path id="svg_32" class="st1" d="M15.8,417.4l1-2.4c-0.2-0.4-0.4-1.2-0.8-2.1l-4.1-9.8c-0.7-1.6-1.8-1.9-1.8-1.9v-0.8h1.5
					c2,0,3.3-0.1,3.3-0.1l0.1,0.1c-0.4,0.8-0.4,2.1,0,2.9l2.6,6.5c0.2,0.5,0.4,1.3,0.6,1.9l3.6-8.2c0.5-1.3-0.6-2-1.8-2.3v-0.8h4.4
					l0.2,0.5c0,0-0.6,0.3-1.1,1.7L18,415.2c-0.9,1.9-2.7,7.2-5.8,7.2c-0.9,0-1.4-0.6-1.4-1.3c0-0.6,0.4-1.3,1.6-1.3
					C14.1,419.8,15.2,418.7,15.8,417.4z"/>
			</g>
		</g>
		<g id="svg_33">
			<g id="svg_34">
				<path id="svg_35" class="st2" d="M-118,483.2c3.4-0.4,5.5-2.2,5.5-5v-40.9h-7.6c-5.3,0-7.6,1.6-10.5,9.5h-2.6l2.4-12.9
					c0,0,2,0.5,5.1,0.5h35.9c3.1,0,5.5-0.5,5.5-0.5l-2.4,12.9h-2.6c0.4-7.9-2.1-9.5-8.1-9.5h-7.6l-0.8,0.8v40.1
					c0,2.3-0.4,4.1-0.4,4.1l7.7,0.7l-0.3,2.1l-19.2,0.5L-118,483.2L-118,483.2z"/>
				<path id="svg_36" class="st2" d="M-53.5,433.4c16,0,26.2,10.8,26.2,24.7c0,14.6-11.2,28.3-28.1,28.3
					c-15.7,0-25.9-11.9-25.9-25.8C-81.3,446.8-71.4,433.4-53.5,433.4z M-53.8,483.3c12,0,19-12.1,19-23.3c0-11.5-7.2-23.5-19.9-23.5
					c-12,0-18.9,10.8-18.9,22.1C-73.7,470-66.5,483.3-53.8,483.3z"/>
				<path id="svg_37" class="st2" d="M-11.4,483.2c3.4-0.4,5.5-2.1,5.5-4.8v-15.6l-14.7-23.2c-1.8-2.9-4.1-3.4-4.1-3.4v-1.9h3.7
					c4.8,0,7.8-0.3,7.8-0.3l0.3,0.3c0,0-1.5,2.9,0.1,5.5l9.5,15.3c0.8,1.2,1.6,3,2.2,4.3l11.4-18.5c1.2-2,0.8-4.1-3.1-4.8v-1.9h12.7
					l0.3,1.1c0,0-3,1-5.3,4.7l-14,22.7v15.8c0,2.2-0.4,3.9-0.4,3.9l6.9,0.7l-0.3,2.1l-18.5,0.5V483.2L-11.4,483.2z"/>
			</g>
		</g>
		<g id="svg_38">
			<path id="svg_39" class="st1" d="M-113,517.4c1.4-0.2,2.3-0.9,2.3-2v-15.3c0-1.5-0.2-1.9-2.6-2.3V497h7.9c3.7,0,7.8,1.2,7.8,5.9
				c0,5.1-4.8,6.8-8.3,6.5v-0.9c3.7-0.1,5.1-2.4,5.1-4.9c0-3.8-3-5.3-6.4-5.3h-0.5l-0.3,0.3v16.8c0,0.9-0.2,1.6-0.2,1.6l3,0.3
				l-0.1,0.9l-7.9,0.2L-113,517.4L-113,517.4z"/>
			<path id="svg_40" class="st1" d="M-95.5,517.5c1.4-0.2,2-0.9,2-2.1v-7.8c0-1.4,0-2.2-1-2.2h-1.4v-0.9c3.1-0.6,5.2-1.5,5.2-1.5
				l0.1,0.1c0,0-0.3,1.1-0.4,4.1c1-1.8,2.7-3.7,4.3-3.7c0.8,0,1.7,0.4,1.7,1.5c0,1-0.7,1.6-1.5,1.6c-0.7,0-0.8-0.5-1.6-0.5
				c-1.1,0-2.1,1.1-2.8,1.9v7.5c0,1-0.2,1.7-0.2,1.7l3,0.3l-0.1,0.8l-7.4,0.2L-95.5,517.5L-95.5,517.5L-95.5,517.5z"/>
			<path id="svg_41" class="st1" d="M-76.2,503.5c4.7,0,7.1,3.1,7.1,7c0,4-2.5,8.2-7.6,8.2c-4.5,0-7-3.2-7-7.3
				C-83.7,507.7-81.6,503.5-76.2,503.5z M-76.2,517.6c2.7,0,4.2-2.7,4.2-6.2c0-3.2-1.3-6.8-4.5-6.8c-2.9,0-4.2,3-4.2,6.1
				C-80.7,513.9-79.4,517.6-76.2,517.6z"/>
			<path id="svg_42" class="st1" d="M-62.7,513.4c-2.1-0.6-3.8-2.1-3.8-4.7c0-3.3,2.8-5.1,6-5.1c1.9,0,2.6,0.6,4.2,0.6h1.5
				c1,0,2.1-0.4,2.1-0.4l-0.3,2.1h-1.7c-0.7,0-1.1-0.1-1.1-0.1s1.3,1.1,1.3,3.1c0,3-2.9,4.8-6.1,4.8c-0.5,0-1.1,0-1.6-0.1
				c-0.2,0.3-0.8,0.9-0.8,1.3c0,0.9,1.9,1.1,4.4,1.6c2.7,0.5,5.6,1.4,5.6,4c0,3.1-4.2,5.4-8.1,5.4c-2.9,0-6-1.2-6-3.9
				c0-2.5,2.6-3.4,4-4c-1.5-0.4-2.7-1-2.7-2C-65.8,514.6-63.9,514-62.7,513.4z M-62.3,518.2c-0.8,0.5-2.3,1.7-2.3,3.5c0,2,1.9,3,4,3
				c2.3,0,4.9-1.3,4.9-3.2c0-1.6-1.9-2.3-4-2.7C-60.5,518.5-61.5,518.4-62.3,518.2z M-57.3,508.9c0-2-1.1-4.2-3.4-4.2
				c-2.2,0-3.1,1.9-3.1,4c0,2,0.9,3.9,3.3,3.9C-58.2,512.5-57.3,510.7-57.3,508.9z"/>
			<path id="svg_43" class="st1" d="M-51.2,517.5c1.4-0.2,2-0.9,2-2.1v-7.8c0-1.4,0-2.2-1-2.2h-1.4v-0.9c3.1-0.6,5.2-1.5,5.2-1.5
				l0.1,0.1c0,0-0.3,1.1-0.4,4.1c1-1.8,2.6-3.7,4.3-3.7c0.8,0,1.7,0.4,1.7,1.5c0,1-0.7,1.6-1.5,1.6c-0.7,0-0.8-0.5-1.6-0.5
				c-1.1,0-2.1,1.1-2.8,1.9v7.5c0,1-0.2,1.7-0.2,1.7l3,0.3l-0.1,0.8l-7.4,0.2L-51.2,517.5L-51.2,517.5z"/>
			<path id="svg_44" class="st1" d="M-32.4,510.3l1.1-0.2c0-0.7,0-2.5-0.1-3.4c-0.2-1.2-0.8-2-2-2c-2.2,0-3.4,3.1-3.4,3.1h-1
				l-0.5-2.4c0,0,2.3-1.8,5.9-1.8c3,0,3.8,1.2,3.8,4.6v7.4c0,1,0.1,1.5,0.9,1.5c0.9,0,1.8-0.6,1.8-0.6l0.4,0.7c0,0-1.5,1.7-3.4,1.7
				c-1.2,0-2.2-0.7-2.2-2.3v-0.8c0,0-1.7,3-5,3c-2.1,0-3.3-1.5-3.3-3.2C-39.6,512.4-35.8,510.8-32.4,510.3z M-31.4,514.9v-3.8
				l-1,0.2c-1.8,0.3-4.4,1.2-4.4,3.6c0,1.3,0.8,2,1.8,2C-33.7,516.8-32.2,515.6-31.4,514.9z"/>
			<path id="svg_45" class="st1" d="M-24.6,517.5c1.4-0.2,2-0.9,2-2.1v-7.8c0-1.4,0-2.2-1-2.2H-25v-0.9c3.1-0.6,5.1-1.5,5.1-1.5
				l0.1,0.1c0,0-0.3,1-0.4,3.9c1.1-1.7,3.2-3.5,5.8-3.5c2,0,3.4,1.1,3.4,3.7c1.2-1.9,3.3-3.7,5.9-3.7c2.1,0,3.4,1.1,3.4,4.3v7.5
				c0,1-0.2,1.7-0.2,1.7l2.7,0.3l-0.1,0.8l-6.9,0.2v-0.9c1.4-0.2,1.8-0.9,1.8-2.1v-6.8c0-2.4-0.7-3.1-1.9-3.1
				c-1.4,0-4.7,1.3-4.7,3.2v6.7c0,1-0.2,1.7-0.2,1.7l2.6,0.3l-0.1,0.8l-6.7,0.2v-0.9c1.4-0.2,1.8-0.9,1.8-2.1v-6.8
				c0-2.4-0.7-3.1-1.9-3.1c-1.4,0-3.2,0.9-4.6,2.2v7.7c0,1-0.2,1.7-0.2,1.7l2.6,0.3l-0.1,0.8l-6.9,0.2v-0.8H-24.6z"/>
		</g>
		<path id="svg_46" class="st3" d="M12.9,299.7c0.6-0.8,1.4-1.6,2-2.4c7.2-10.4,11-21.2,10.8-31.2c-0.2-12.2-5.9-22.6-16.6-30
			c-19.4-13.5-43.3-7.1-59.3,15.9c-6.7,9.6-9.5,21.9-10.6,33.6c-6.9-15-17.9-30.3-28.9-38c-23.1-16-47.7-13.6-61.1,5.8
			c-7.4,10.7-9.2,22.4-5.1,33.9c3.4,9.4,10.6,18.2,21,25.4c5.8,4.1,13.7,7.3,22.1,9.6l-57.4,10.4l4,22.3l211.9-38.2l-4-22.3
			L12.9,299.7z M-31.6,265c5.2-7.5,11.2-12.2,16.7-13.2c3.6-0.7,7.3,0.3,11.1,3c4.6,3.2,6.8,6.9,6.9,11.7c0.1,5.1-2.3,11.5-6.8,17.9
			c-6.1,8.8-22.3,19-34.8,23.7C-39.1,295.4-39.1,275.8-31.6,265z M-134.6,279.8c-1.6-4.5-0.9-8.7,2.4-13.4c2.6-3.8,5.7-6,9.3-6.6
			c5.6-1,12.7,1.3,20.3,6.5c10.8,7.5,21.3,26.4,24.9,37.9c-13.4,0.7-34.7-3.4-44.3-10C-128.4,289.8-132.8,284.6-134.6,279.8
			L-134.6,279.8z"/>
	</g>
	<line id="svg_47" class="st4" x1="-165.4" y1="556.8" x2="-113.3" y2="556.8"/>
	<line id="svg_48" class="st5" x1="-7.3" y1="556.8" x2="50" y2="556.8"/>
</g>
<g>
	<path class="st6" d="M-105.8,561.8c1.3,0,1.8-0.4,1.8-1.4v-6.2c0-1-0.4-1.3-1.9-1.3v-0.7h5.5l-0.1,0.7l-1.9,0.2v7.3
		c0,0.7-0.1,1.2-0.1,1.2l2.2,0.2l-0.1,0.7l-5.4,0.1V561.8z"/>
	<path class="st6" d="M-91.5,558.3c0-3-1.1-5.8-2.8-5.8c-1.4,0-2.1,1.9-2.1,3.7c0,2,1,4.9,3.4,3.9l0.1,0.7c-0.6,0.4-1.3,0.5-1.9,0.5
		c-2.3,0-3.4-2.1-3.4-4.4c0-2.4,1.5-5.1,4.2-5.1c3,0,4.4,2.9,4.4,6.3c0,4.2-2.4,8.6-7.5,8.6l-0.1-0.8
		C-93.1,565.7-91.5,561.9-91.5,558.3z"/>
	<path class="st6" d="M-84.5,554.7c-1.3-1.1-2.4-2.3-2.4-3.9c0-1.9,1.6-3.3,3.9-3.3c2.1,0,3.5,1.2,3.5,3.1c0,1.9-1.5,2.9-2.8,3.7
		c1.6,1.3,3.2,2.7,3.2,4.6c0,2-1.9,3.9-4.3,3.9c-1.9,0-4-1.1-4-3.7C-87.4,556.9-85.9,555.7-84.5,554.7z M-83.3,561.9
		c1.1,0,2.5-0.9,2.5-2.5c0-1.7-1.6-2.9-3.2-4.2c-1,0.8-1.8,1.9-1.8,3.6C-85.7,560.8-84.5,561.9-83.3,561.9z M-82.8,553.8
		c1-0.7,1.6-1.8,1.6-3.1c0-1.6-0.9-2.4-1.9-2.4c-1,0-2,0.8-2,2.1S-84.1,552.7-82.8,553.8z"/>
	<path class="st6" d="M-77.5,561l6.3-8.9l1.1-0.4l0,0.1c0,0-0.2,0.8-0.2,2.4v6.1h2.3l-0.3,1.3h-2v3.6c0,0.9-0.1,1.2-0.1,1.2
		l-1.6,0.2l-0.1-0.1c0,0,0.1-0.4,0.1-1.2v-3.7h-5.4L-77.5,561z M-71.9,560.4v-4.4c0-0.4,0-1,0.1-1.4l-4.2,5.9H-71.9z"/>
	<path class="st6" d="M-61.3,556.2h4.9v1.5h-4.9V556.2z"/>
	<path class="st6" d="M-49.3,561.7c1.6-1.5,4.6-4.1,4.6-6.6c0-1.4-0.9-1.9-1.8-1.9c-0.8,0-1.7,0.4-2.4,0.9l-0.4-0.5
		c0,0,1.3-1.8,3.6-1.8c1.4,0,2.9,0.9,2.9,2.8c0,1.8-1.9,4-4.4,6.3h3c1.4,0,1.8-0.9,2.1-1.9h0.6l-0.6,3.4h-7L-49.3,561.7z"/>
	<path class="st6" d="M-34.5,551.8c3,0,4.5,2.5,4.5,5.1c0,2.8-1.6,5.7-4.8,5.7c-3,0-4.5-2.7-4.5-5.3
		C-39.3,554.6-37.7,551.8-34.5,551.8z M-31.7,557.2c0-2.1-1.1-4.3-2.9-4.3c-1.9,0-2.9,2.2-2.9,4.4c0,2.2,1.1,4.4,2.9,4.4
		C-32.8,561.6-31.7,559.4-31.7,557.2z"/>
	<path class="st6" d="M-27.5,561.8c1.3,0,1.8-0.4,1.8-1.4v-6.2c0-1-0.4-1.3-1.9-1.3v-0.7h5.5l-0.1,0.7l-1.9,0.2v7.3
		c0,0.7-0.1,1.2-0.1,1.2l2.2,0.2l-0.1,0.7l-5.4,0.1V561.8z"/>
	<path class="st6" d="M-15.2,562c0-3.3-4.9-3.7-4.9-3.7l0.3-6.2h4.4c0.8,0,1.5-0.1,1.5-0.1l-0.3,1.7H-19l-0.2,3.1c0,0,5.7,0.7,5.7,5
		c0,2.8-2.9,5-6,5c-0.3,0-0.6,0-0.6,0l-0.1-0.8C-17.3,565.9-15.2,564.2-15.2,562z"/>
</g>
</svg>
